<?xml version="1.0" standalone="no"?>
<!DOCTYPE svg PUBLIC "-//W3C//DTD SVG 1.1//EN" "http://www.w3.org/Graphics/SVG/1.1/DTD/svg11.dtd" >
<svg xmlns="http://www.w3.org/2000/svg">
<metadata>Some SVG resources from Ionicons licensed under MIT</metadata>
<defs>
<font id="icomoon" horiz-adv-x="512">
<font-face units-per-em="512" ascent="480" descent="-32" />
<missing-glyph horiz-adv-x="512" />
<glyph unicode="&#x20;" d="" horiz-adv-x="256" />
<glyph unicode="&#xe600;" d="M464 336v-288h-416v288h416zM480 352h-448v-320h448v320zM72 384h368v-16h-368v16zM104 416h304v-16h-304v16z" />
<glyph unicode="&#xe601;" d="M480 352h-448v-320h448v320zM72 384h368v-16h-368v16zM104 416h304v-16h-304v16z" />
<glyph unicode="&#xe602;" d="M424.883 308.981l-4.236 7.055v-183.935l4.236 7.055-172.493-91.968h7.541l-172.493 91.967 4.237-7.055v183.935l-4.237-7.055 172.493 91.968h-7.542l172.493-91.968zM256.161 417.068l-180.5-96.236v-193.527l180.5-96.237 180.5 96.236v193.527l-180.5 96.237zM252.129 227.165l172.235 91.893 7.531-14.099-176-93.901-176 93.901 7.531 14.099 172.235-91.893h-7.53zM263.661 223v-184h-16v184h16z" />
<glyph unicode="&#xe603;" d="M352 351.6l-32.3 32.4-159.7-160 159.7-160 32.3 32.4-127.3 127.6z" />
<glyph unicode="&#xe604;" d="M128.4 320l-32.4-32.3 160-159.7 160 159.7-32.4 32.3-127.6-127.3-127.6 127.3z" />
<glyph unicode="&#xe605;" d="M396.6 320l19.4-20.7-160-171.3-160 171.3 19.3 20.7 140.7-150.5z" />
<glyph unicode="&#xe606;" d="M160 351.6l32.3 32.4 159.7-160-159.7-160-32.3 32.4 127.3 127.6z" />
<glyph unicode="&#xe607;" d="M352 364.6l-20.7 19.4-171.3-160 171.3-160 20.7 19.3-150.5 140.7z" />
<glyph unicode="&#xe608;" d="M160 364.6l20.7 19.4 171.3-160-171.3-160-20.7 19.3 150.5 140.7z" />
<glyph unicode="&#xe609;" d="M349.7 157.8c-3.1 3.1-8 3-11.3 0l-74.4-66.4v284.6c0 4.4-3.6 8-8 8s-8-3.6-8-8v-284.6l-74.4 66.3c-3.4 2.9-8.1 3.2-11.2 0.1s-3.3-8.5-0.1-11.4c0 0 87-79.2 88-80s2.8-2.4 5.7-2.4 4.9 1.6 5.7 2.4 88 80 88 80c1.5 1.5 2.3 3.6 2.3 5.7s-0.8 4.1-2.3 5.7z" />
<glyph unicode="&#xe60a;" d="M189.8 130.3c3.1 3.1 3 8 0 11.3l-66.4 74.4h284.6c4.4 0 8 3.6 8 8s-3.6 8-8 8h-284.6l66.3 74.4c2.9 3.4 3.2 8.1 0.1 11.2s-8.5 3.3-11.4 0.1c0 0-79.2-87-80-88s-2.4-2.8-2.4-5.7 1.6-4.9 2.4-5.7 80-88 80-88c1.5-1.5 3.6-2.3 5.7-2.3s4.1 0.8 5.7 2.3z" />
<glyph unicode="&#xe60b;" d="M322.2 130.3c-3.1 3.1-3 8 0 11.3l66.4 74.4h-284.6c-4.4 0-8 3.6-8 8s3.6 8 8 8h284.6l-66.3 74.4c-2.9 3.4-3.2 8.1-0.1 11.2s8.5 3.3 11.4 0.1c0 0 79.2-87 80-88s2.4-2.8 2.4-5.7-1.6-4.9-2.4-5.7-80-88-80-88c-1.5-1.5-3.6-2.3-5.7-2.3s-4.1 0.8-5.7 2.3z" />
<glyph unicode="&#xe60c;" d="M349.7 290.2c-3.1-3.1-8-3-11.3 0l-74.4 66.4v-284.6c0-4.4-3.6-8-8-8s-8 3.6-8 8v284.6l-74.4-66.3c-3.4-2.9-8.1-3.2-11.2-0.1s-3.3 8.5-0.1 11.4c0 0 87 79.2 88 80s2.8 2.4 5.7 2.4 4.9-1.6 5.7-2.4 88-80 88-80c1.5-1.5 2.3-3.6 2.3-5.7s-0.8-4.1-2.3-5.7z" />
<glyph unicode="&#xe60d;" d="M396.6 128l19.4 20.7-160 171.3-160-171.3 19.3-20.7 140.7 150.5z" />
<glyph unicode="&#xe60e;" d="M364.4 159.1c-5.3-7.5-11.6-14.7-18.8-21.4-7.1-6.6-15.1-12.5-23.7-17.4s-17.9-8.8-27.5-11.5-19.8-4.1-30.3-4.1c-15.9 0-31.2 2.6-45.5 7.6-14.2 5-26.8 12.5-37.5 22.4-10.7 9.8-21.7 25.9-28.2 41-5.8 13.4-8.1 27.8-8.1 49.5 0 15.6 3.6 33 9.8 47.6 6 14 14.3 26.4 24.9 36.9 10.4 10.3 23 18.6 37.6 24.8 13.1 5.5 28.5 8.2 47.1 8.2 14.9 0 29-2.4 41.9-7 12.8-4.6 23.9-11.2 33.1-19.6 8.7-7.9 14-17.4 19.7-30.2 5-11.2 6.8-20.9 6.8-35.9 0-12.4-2.2-24.1-6.5-34.9-4.3-10.6-7.5-17-14-25-6.6-7.9-10.6-12.7-18.1-17.1-8.6-5-15.3-7.4-21-7.4-3.6 0-6.3 0.7-7.8 2s-2.4 3-2.7 5.4c-0.4 2.8-0.1 6.3 1 10.4 1.1 4.4 2.8 8.6 4.9 13.7l37.9 101.9h-17.8l-6.2-16.5c-3.8 6.1-9.1 11.5-15.9 15.5-10.5 6.1-19.5 8.8-31.2 8.8-13.5 0-26-3.5-37.2-10.4-11-6.8-20.5-15.6-28.2-26.3-7.5-10.3-9.3-15.7-12.9-26.4l-0.6-1.7c-4.2-12.4-6.3-24.6-6.3-36.2 0-7.7 1.4-15 4.1-21.8s6.4-12.8 11.1-17.8c4.7-5.1 10.4-9.1 16.9-12.1s13.7-4.5 21.3-4.5c8.5 0 16.6 1.4 26.1 4.7 6.3 2.2 11.9 5.8 17.4 11.4 1-3.2 2.7-6 5.3-8.5 5-5 11.7-7.6 19.9-7.6 8.6 0 17.8 3 29 9.3 9.9 5.6 15.7 12 23.3 21.1 8.2 9.8 12.3 18 16.9 29.7 5 12.5 7.5 26 7.5 40.3 0 18-2.4 30.2-8.5 43.6-6.6 14.3-13.2 25.8-24 35.4-10.9 9.6-23.9 17.1-38.5 22.3-14.5 5.1-30.3 7.7-46.7 7.7-20.1 0-37.2-3-52.2-9.1-16.5-6.7-30.9-16-43-27.6-12.2-11.8-22-25.9-29-41.9-7.3-16.6-11.4-36.7-11.4-55.1 0-25.1 3.1-42.6 10.3-58.4 8-17.3 21-35.4 33.3-46 12.6-10.9 27.1-19.1 43.2-24.2 15.9-5.1 32.3-7.7 48.8-7.7 11.4 0 22.8 1.6 34 4.6 11.2 3.1 22 7.4 32.1 13.1 10.1 5.6 19.5 12.5 28.2 20.6 8.6 8.1 18.6 20.8 22 26.9 1.3 2.4 2.2 4.3 2.9 5.8h-18.5l-0.5-0.9zM275.8 185.6c-4.4-5.6-7.7-9.5-11.8-12.2-4.4-3-7.9-4.9-12.4-5.9-4.6-1.2-9.3-1.7-13.7-1.7-5.6 0-10.8 1-15.4 3-4.7 2-8.7 4.8-12.1 8.4s-6.1 7.9-8.1 12.7c-1.9 4.8-2.9 10.2-2.9 16 0 9.5 1.8 19.7 5.3 30.3 0.4 1.2 0.8 2.4 1.1 3.4 2.8 8.6 4.3 11.5 9.5 20 5.7 9.4 14.1 16.6 23 22.5 8.6 5.8 18.2 8.7 28.5 8.7 4.2 0 8.6-0.5 13.2-1.5 3.6-0.8 5.6-1.9 9-3.9 0.6-0.3 1.1-0.6 1.7-1 3.9-2.2 7.4-5.1 10.4-8.7 2.7-3.2 4.8-7.4 6.3-12.3l-20.6-57.8c-3.2-8.1-6.9-14.8-11-20z" />
<glyph unicode="&#xe60f;" d="M356 160c-9.7-13.3-29.9-28.5-38.1-33.1s-16.9-8.3-26-10.8c-9-2.5-18.6-3.9-28.4-3.9-14.9 0-29.4 2.4-43 7.2-13.3 4.7-25.2 11.8-35.1 21-9.9 9-20.3 24.2-26.5 38.5-5.3 12.4-7.6 25.8-7.6 46.5 0 14.7 3.4 30.9 9.2 44.7 5.6 13.2 13.5 24.9 23.3 34.6 9.7 9.6 21.6 17.5 35.3 23.3 12.3 5.1 26.7 7.7 44.4 7.7 13.9 0 27.2-2.2 39.4-6.6 11.9-4.3 22.3-10.4 30.9-18.3 8-7.3 12.9-16.1 18.2-28.1 4.6-10.2 6.3-19.2 6.3-33.3 0-11.5-2-22.4-6-32.4-4-9.8-7-15.8-13-23.3-6.3-7.6-9.8-11.8-16.5-15.6-7.8-4.6-13.7-6.7-18.5-6.7-3.8 0-5 0.9-5.1 1-0.6 0.5-1.1 1.2-1.4 2.8-0.3 2.2 0 5.2 0.9 8.6 1 3.9 2.4 7.7 4.6 12.9l39 104.3h-25.6l-4.5-12c-3.5 4.1-7.7 7.5-12.4 10.2-11.1 6.4-20.4 9-32.3 9-13.8 0-26.7-3.6-38.2-10.7-11.2-6.9-20.8-15.8-28.5-26.5-7.6-10.5-9.5-16.1-13-26.5l-0.6-1.8c-4.2-12.4-6.3-24.7-6.3-36.4 0-7.9 1.5-15.5 4.3-22.6 2.8-7.2 6.7-13.4 11.6-18.5 4.8-5.2 10.7-9.4 17.7-12.6 6.8-3.1 14.3-4.8 22.4-4.8 8.9 0 17.1 1.5 26.7 4.8 5.3 1.8 9.9 4.5 14.4 8.3 1-1.7 2.2-3.1 3.7-4.5 5.6-5.6 13.1-8.5 22.1-8.5 8.9 0 18.6 3 30.2 9.5 10.3 5.8 16.3 12.5 23.7 21.4 8.4 10 12.5 18.6 17 29.9 5.1 12.5 7.6 26.2 7.6 40.6 0 18.1-2.4 30.4-8.7 44-6.6 14.4-13.3 25.9-24.3 35.6-10.9 9.7-23.9 17.2-38.7 22.4-14.6 5.1-30.3 7.7-46.7 7.7-20 0-37.2-3-52.2-9.1-16.3-6.6-30.8-15.9-43.1-27.6-12.3-11.8-22.1-26-29.1-42-7.3-16.5-11.4-36.5-11.4-55.1 0-25 3.1-42.4 10.4-58.4 8.1-17.5 21.2-35.5 33.4-45.9 12.7-11.1 27.3-19.2 43.4-24.3 15.9-5.1 32.3-7.7 48.6-7.7 11.2 0 22.7 1.6 34.1 4.6 11.6 3.2 22.4 7.6 32.1 13.1 9.9 5.5 19.5 12.4 28.2 20.6 8.8 8.2 19.4 20.9 22.9 27.1 1.2 2.3 2.2 4.2 2.8 5.6h-28zM271.9 189.4c-4.4-5.5-7.2-8.9-10.6-11.2-3.8-2.6-6.8-4.2-10.7-5.2h-0.1c-3.9-1-8.1-1.5-12.4-1.5-5 0-9.4 0.9-13.4 2.7-4.1 1.7-7.5 4.1-10.5 7.3-2.9 3.1-5.4 6.8-7.1 11.1s-2.5 9-2.5 14.1c0 8.7 1.7 18.3 5 28.2 0.4 1.2 0.8 2.4 1.1 3.3 2.6 8.1 4 10.6 8.9 18.6 4.5 7.4 11.5 14.2 21.2 20.7 7.7 5.1 16.2 7.8 25.6 7.8 3.8 0 7.8-0.5 12-1.4 3-0.7 4.6-1.6 7.6-3.3l0.2-0.1c0.4-0.2 0.8-0.4 1.3-0.7l0.3-0.2c3.4-1.9 6.4-4.5 9-7.6 2-2.4 3.7-5.5 5-9.4l-19.8-54.8c-3-7.4-6.4-13.6-10.1-18.4z" />
<glyph unicode="&#xe610;" d="M381.7 254.1c0 97.6-52.5 130.8-101.6 138.2 0 0.5 0.1 1 0.1 1.6 0 12.3-10.9 22.1-24.2 22.1s-23.8-9.8-23.8-22.1c0-0.6 0-1.1 0.1-1.6-49.2-7.5-102-40.8-102-138.4 0-113.8-28.3-126-66.3-158h384c-37.8 32.1-66.3 44.4-66.3 158.2zM107.2 112c8.6 9 16.4 18.4 22.7 31.8 12 25.3 17.4 59.2 17.4 110.2 0 46.4 12.5 80.4 37.1 101.2 22.9 19.3 51.7 23.3 71.8 23.3s48.9-4 71.6-23.3c24.5-20.7 37-54.5 37-100.9 0-83.8 14.9-117.3 40.3-142.3h-297.9zM256.2 32c26.8 0 48.8 19.9 51.7 43h-103.4c2.8-23.1 24.9-43 51.7-43z" />
<glyph unicode="&#xe611;" d="M381.7 254.1c0 97.6-52.5 130.8-101.6 138.2 0 0.5 0.1 1 0.1 1.6 0 12.3-10.9 22.1-24.2 22.1s-23.8-9.8-23.8-22.1c0-0.6 0-1.1 0.1-1.6-49.2-7.5-102-40.8-102-138.4 0-113.8-28.3-126-66.3-158h384c-37.8 32.1-66.3 44.4-66.3 158.2zM256.2 32c26.8 0 48.8 19.9 51.7 43h-103.4c2.8-23.1 24.9-43 51.7-43z" />
<glyph unicode="&#xe612;" d="M432 416h-150.4c-10.3 0-19.3-4.6-25.6-11.7v0c-6.2 7.2-15.3 11.7-25.6 11.7h-150.4c-18.8 0-33-13.3-33-32v-286.1c0-18.8 14.2-33.9 33-33.9h143.3c13.8 0 24.7-4.2 24.7-19.4v-12.6h16v12.6c0 15.3 10.9 19.4 24.7 19.4h143.3c18.8 0 33 15.1 33 33.9v286.1c0 18.7-14.2 32-33 32v0zM248 68.9c-4.7 7.8-13.5 11.1-23.8 11.1h-144.2c-9.4 0-16 8.5-16 17.9v286.1c0 9.4 6.6 16 16 16h143.3c12.8 0 24.7-12.8 24.7-22.2v-308.9zM432 80h-144.2c-10.3 0-19.1-2.3-23.8-11.1v308.9c0 9.4 11.9 22.2 24.7 22.2h143.3c9.4 0 16-6.7 16-16v-286.1c0-9.4-6.6-17.9-16-17.9z" />
<glyph unicode="&#xe613;" d="M432 416h-150.4c-10.3 0-19.3-4.6-25.6-11.7v0 0c-6.2 7.2-15.3 11.7-25.6 11.7h-150.4c-18.8 0-33-13.3-33-32v-286.1c0-18.8 14.2-33.9 33-33.9 0 0 129.5 0 143.3 0s24.7-4.2 24.7-19.4c0-9.1 0-12.6 0-12.6h16c0 0 0 3.4 0 12.6 0 15.3 10.9 19.4 24.7 19.4s143.3 0 143.3 0c18.8 0 33 15.1 33 33.9v286.1c0 18.7-14.2 32-33 32zM248 68.9c-4.7 7.8-13.5 11.1-23.8 11.1h-144.2c-9.4 0-16 8.5-16 17.9v286.1c0 9.4 6.6 16 16 16 0 0 130.6 0 143.3 0 12.8 0 24.7-12.8 24.7-22.2v-308.9zM320 400c18.8 0 43 0 64 0v-100.4l-22.9 14.5-9.1 6.4-9.1-6.4-22.9-14.5v100.4zM448 97.9c0-9.4-6.6-17.9-16-17.9h-144.2c-10.3 0-19.1-2.3-23.8-11.1v308.9c0 9.4 11.9 22.2 24.7 22.2 2.2 0 7.7 0 15.3 0v-131l48 32 48-32v131c18.6 0 32 0 32 0 9.4 0 16-6.7 16-16v-286.1z" />
<glyph unicode="&#xe614;" d="M342.9 314.6l9.1 6.4 9.1-6.4 22.9-14.5v115.9c-20.7 0-44.5 0-64 0v-115.9l22.9 14.5zM432 416c0 0-13.3 0-32 0v-146.5l-48 32-48-32v146.5c-12.1 0-20.6 0-22.4 0-8.1 0-17.6-7.2-17.6-15s0-329 0-329l-8-5.5-8 5.5c0 0 0 322 0 329s-9.2 15-17.6 15-150.4 0-150.4 0c-18.8 0-33-13.3-33-32v-286.1c0-18.8 14.2-33.9 33-33.9 0 0 129.5 0 143.3 0s24.7-4.2 24.7-19.4c0-9.1 0-12.6 0-12.6h16c0 0 0 3.4 0 12.6 0 15.3 10.9 19.4 24.7 19.4s143.3 0 143.3 0c18.8 0 33 15.1 33 33.9v286.1c0 18.7-14.2 32-33 32z" />
<glyph unicode="&#xe615;" d="M287.8 240c8.8 0 16.1-7.2 16.1-16s-7-16-15.9-16h-64c-8.8 0-16 7.2-16 16s7.2 16 16 16h63zM288 256h-64c-17.6 0-32-14.4-32-32s14.4-32 32-32h64c17.6 0 32 14.4 32 32s-14.4 32-32 32v0zM416 368h-320v-80h16v-208h288v208h16v80zM384 96h-256v192h256v-192zM400 304h-288v48h288v-48z" />
<glyph unicode="&#xe616;" d="M112 80h288v192h-288v-192zM224 240h64c8.8 0 16-7.2 16-16s-7.2-16-16-16h-64c-8.8 0-16 7.2-16 16s7.2 16 16 16zM96 368v-80h320v80z" />
<glyph unicode="&#xe617;" d="M416 352v16h-32v-16h-48v32c-0.5 18.2-13.6 32-32.2 32h-99.1c-18.6 0-28.7-13.7-28.7-32v-32h-48v16h-32v-16h-48v-320h416v320h-48zM192 352.5v29.4c0 10.2 2.9 18.1 13.7 18.1h97.1c10.4 0 17.2-7.7 17.2-18.1v-29.9h-128v0.5zM448 48h-384v224h384v-224zM448 288h-384v48h32v-16h32v16h256v-16h32v16h32v-48z" />
<glyph unicode="&#xe618;" d="M96 368h32v-16h-32v16zM48 272h416v-240h-416v240zM384 368h32v-16h-32v16zM416 352v-32h-32v32h-48v32c-0.5 18.2-13.6 32-32.2 32h-99.1c-18.6 0-28.7-13.7-28.7-32v-32h-48v-32h-32v32h-48v-64h416v64h-48zM320 352.5v-0.5h-128v29.9c0 10.2 2.9 18.1 13.7 18.1h97.1c10.4 0 17.2-7.7 17.2-18.1v-29.4z" />
<glyph unicode="&#xe619;" d="M64 336v-304h303.9v304h-303.9zM351.9 48h-271.9v272h271.9v-272zM448 416h-304v-64h16v48h272v-272h-48v-16h64z" />
<glyph unicode="&#xe61a;" d="M64 336v-304h303.9v304h-303.9zM144 416v-64h240v-240h64v304z" />
<glyph unicode="&#xe61b;" d="M144 320h224v64h-224v-64zM160 368h192v-32h-192v32zM368 416h-224c-17.7 0-32-14.3-32-32v-320c0-17.7 14.3-32 32-32h224c17.7 0 32 14.3 32 32v320c0 17.7-14.3 32-32 32zM384 64c0-8.8-7.2-16-16-16h-224c-8.8 0-16 7.2-16 16v320c0 8.8 7.2 16 16 16h224c8.8 0 16-7.2 16-16v-320zM160 240v48h-16v-64h64v16h-16zM160 160v48h-16v-64h64v16h-16zM160 80v48h-16v-64h64v16h-16zM240 240v48h-16v-64h64v16h-16zM320 240v48h-16v-64h64v16h-16zM240 160v48h-16v-64h64v16h-16zM240 80v48h-16v-64h64v16h-16zM320 80v128h-16v-144h64v16h-16z" />
<glyph unicode="&#xe61c;" d="M368 416h-224c-17.7 0-32-14.3-32-32v-320c0-17.7 14.3-32 32-32h224c17.7 0 32 14.3 32 32v320c0 17.7-14.3 32-32 32zM360 200v-128h-48v128h48zM360 280v-48h-48v48h48zM280 120v-48h-48v48h48zM280 200v-48h-48v48h48zM280 280v-48h-48v48h48zM200 120v-48h-48v48h48zM200 200v-48h-48v48h48zM200 280v-48h-48v48h48zM152 328v48h208v-48h-208z" />
<glyph unicode="&#xe61d;" d="M352 384v32h-16v-32h-160v32h-16v-32h-96v-352h384v352h-96zM432 48h-352v240h352v-240zM432 304h-352v64h80v-32h16v32h160v-32h16v32h80v-64z" />
<glyph unicode="&#xe61e;" d="M64 288h384v-256h-384v256zM448 384h-96v-48h-16v48h-160v-48h-16v48h-96v-80h384zM160 416h16v-32h-16v32zM336 416h16v-32h-16v32z" />
<glyph unicode="&#xe61f;" d="M417.5 320h-61.7c-32.1 36-42.2 48-54.5 48h-88.5c-12.3 0-22.2-12-54.5-48h-13.3v16h-34v-16h-13.5c-17.6 0-33.5-13.2-33.5-30.7v-176c0-17.5 15.9-33.3 33.5-33.3h320c17.6 0 30.5 15.8 30.5 33.3v176c0 17.5-12.9 30.7-30.5 30.7zM432 113.3c0-9.3-6.2-17.3-14.5-17.3h-320c-8.7 0-17.5 8.7-17.5 17.3v176c0 8.2 8.1 14.7 17.5 14.7h67.8l4.8 3.2c4 4.5 7.7 10 11.1 13.8 11.3 12.7 19.5 21.7 25.3 26.9 4.7 4.2 6.2 4.1 6.2 4.1h88.5c0 0 1.6 0.1 6.7-4.5 6.1-5.5 14.7-16.5 26.6-29.8 2.9-3.3 6-6.8 9.3-10.5l4.8-3.2h68.9c8.8 0 14.5-6 14.5-14.7v-176zM256 290.5c-47.1 0-85.5-38.4-85.5-85.5s38.4-85.5 85.5-85.5 85.5 38.4 85.5 85.5-38.4 85.5-85.5 85.5zM256 135.5c-38.4 0-69.5 31.1-69.5 69.5s31.1 69.5 69.5 69.5 69.5-31.1 69.5-69.5-31.1-69.5-69.5-69.5zM352 288h17v-17h-17v17zM288 205c0-17.673-14.327-32-32-32s-32 14.327-32 32c0 17.673 14.327 32 32 32s32-14.327 32-32z" />
<glyph unicode="&#xe620;" d="M417.5 320h-61.7c-32.1 36-42.2 48-54.5 48h-88.5c-12.3 0-22.2-12-54.5-48h-13.3v16h-34v-16h-13.5c-17.6 0-33.5-13.2-33.5-30.7v-176c0-17.5 15.9-33.3 33.5-33.3h320c17.6 0 30.5 15.8 30.5 33.3v176c0 17.5-12.9 30.7-30.5 30.7zM256 119.5c-47.1 0-85.5 38.4-85.5 85.5s38.4 85.5 85.5 85.5 85.5-38.4 85.5-85.5-38.4-85.5-85.5-85.5zM369 271h-17v17h17v-17zM256 274.5c-38.4 0-69.5-31.1-69.5-69.5s31.1-69.5 69.5-69.5 69.5 31.1 69.5 69.5-31.1 69.5-69.5 69.5zM256 173c-17.7 0-32 14.3-32 32s14.3 32 32 32 32-14.3 32-32-14.3-32-32-32z" />
<glyph unicode="&#xe621;" d="M441 64c0-13.8-11.2-25-25-25s-25 11.2-25 25 11.2 25 25 25 25-11.2 25-25zM153 64c0-13.8-11.2-25-25-25s-25 11.2-25 25 11.2 25 25 25 25-11.2 25-25zM127.9 384l-11.1 32h-52.8v-17h41.7l57.5-213.3c-32.4-11.3-59.9-37.9-65.3-73.1-1.9-11.7-1.9-16.6-1.9-16.6h352v16.7h-332.7c4.7 31.6 38.8 58.1 74.1 62.5s243.3 34.2 243.3 34.2l15.3 174.6h-320.1zM416 224l-235-33.3c-0.9-0.2-1.8-0.4-2.7-0.6l-44.7 177.3h297.7l-15.3-143.4z" />
<glyph unicode="&#xe622;" d="M441 64c0-13.8-11.2-25-25-25s-25 11.2-25 25 11.2 25 25 25 25-11.2 25-25zM153 64c0-13.8-11.2-25-25-25s-25 11.2-25 25 11.2 25 25 25 25-11.2 25-25zM127.9 384l-11.1 32h-52.8v-17h41.7l57.5-213.3c-32.4-11.3-59.9-37.9-65.3-73.1-1.9-11.7-1.9-16.6-1.9-16.6h352v16.7h-332.7c4.7 31.6 38.8 58.1 74.1 62.5s243.3 34.2 243.3 34.2l15.3 174.6h-320.1z" />
<glyph unicode="&#xe623;" d="M64 416h256v-96h16v112h-288v-224h112v16h-96zM176 304v-224h162.6l64-64h13.4v64h48v224h-288zM448 96h-48v-54.6l-55 54.6h-153v192h256v-192z" />
<glyph unicode="&#xe624;" d="M336 432h-288v-224h112v112h176zM176 304v-224h162.6l64-64h13.4v64h48v224h-288z" />
<glyph unicode="&#xe625;" d="M256 368c97 0 176-62 176-138.3 0-35.9-17.6-69.2-49.5-93.9-32.8-25.4-77.4-39.3-125.5-39.3-28.9 0-51 3-69.7 9.3-0.6 0.2-1.3 0.5-2 0.7-0.3 0.1-0.6 0.2-0.8 0.2-4.7 1.4-9.7 2.1-14.7 2.1-5.6 0-11.1-0.9-16.3-2.6v0l-0.3-0.1c-0.6-0.2-8.9-3.3-11-4.3v0l-39.6-17.2c13.8 43.9 13.8 44.8 13.8 47.6 0 7.1-2.2 14.1-6.3 20.2-0.5 0.7-1 1.4-1.6 2.1-0.7 0.9-1.3 1.7-1.8 2.3-17.4 21.9-26.6 47.1-26.6 73-0.1 76.2 78.9 138.2 175.9 138.2zM256 384c-106.1 0-192-69.1-192-154.3 0-30.7 11.2-59.3 30.4-83.3 0.9-0.9 2.9-3.8 3.6-4.9 0 0-1 1.6-1.1 1.9 0 0 0 0 0 0v0c0 0 0 0 0 0 2.3-3.3 3.6-7.1 3.6-11.2 0-1.4-17.9-58-17.9-58v0c-1.3-4.4 2.1-8.9 7.6-10 0.8-0.2 1.6-0.2 2.4-0.2 1.3 0 2.5 0.2 3.7 0.5l1.6 0.6 50.6 22c0.9 0.4 9 3.5 10 3.9 0 0 0.6 0.2 0.6 0.2s-0.1 0-0.6-0.2c3.4 1.2 7.2 1.8 11.2 1.8 3.6 0 7.1-0.5 10.3-1.5 0.1 0 0.2 0 0.2-0.1 0.5-0.2 1-0.3 1.5-0.5 23.1-7.9 48.4-10.3 75.1-10.3 106 0 191 64.1 191 149.3 0.2 85.2-85.8 154.3-191.8 154.3v0z" />
<glyph unicode="&#xe626;" d="M256 384c-106.1 0-192-69.1-192-154.3 0-30.7 11.2-59.3 30.4-83.3 0.9-0.9 2.9-3.8 3.6-4.9 0 0-1 1.6-1.1 1.9 0 0 0 0 0 0v0c0 0 0 0 0 0 2.3-3.3 3.6-7.1 3.6-11.2 0-1.4-17.9-58-17.9-58v0c-1.3-4.4 2.1-8.9 7.6-10 0.8-0.2 1.6-0.2 2.4-0.2 1.3 0 2.5 0.2 3.7 0.5l1.6 0.6 50.6 22c0.9 0.4 9 3.5 10 3.9 0 0 0.6 0.2 0.6 0.2s-0.1 0-0.6-0.2c3.4 1.2 7.2 1.8 11.2 1.8 3.6 0 7.1-0.5 10.3-1.5 0.1 0 0.2 0 0.2-0.1 0.5-0.2 1-0.3 1.5-0.5 23.1-7.9 48.4-10.3 75.1-10.3 106 0 191 64.1 191 149.3 0.2 85.2-85.8 154.3-191.8 154.3v0z" />
<glyph unicode="&#xe627;" d="M223.9 150.3c-2.4-2.4-5.8-4.4-8.8-4.4s-6.4 2.1-8.9 4.5l-56 56 17.8 17.8 47.2-47.2 124.8 125.7 17.5-18.1-133.6-134.3z" />
<glyph unicode="&#xe628;" d="M340.1 302.7l-124.8-125.7-47.2 47.2-17.8-17.8 56-56c2.5-2.5 5.9-4.5 8.9-4.5s6.3 2 8.8 4.4l133.7 134.4-17.6 18zM256 432c-114.9 0-208-93.1-208-208s93.1-208 208-208c114.9 0 208 93.1 208 208s-93.1 208-208 208zM256 33.3c-105.1 0-190.7 85.5-190.7 190.7 0 105.1 85.5 190.7 190.7 190.7 105.1 0 190.7-85.5 190.7-190.7 0-105.1-85.6-190.7-190.7-190.7z" />
<glyph unicode="&#xe629;" d="M256 432c-114.9 0-208-93.1-208-208s93.1-208 208-208c114.9 0 208 93.1 208 208s-93.1 208-208 208zM223.9 150.3c-2.4-2.4-5.8-4.4-8.8-4.4s-6.4 2.1-8.9 4.5l-56 56 17.8 17.8 47.2-47.2 124.8 125.7 17.5-18.1-133.6-134.3z" />
<glyph unicode="&#xe62a;" d="M256 432c-114.9 0-208-93.1-208-208s93.1-208 208-208c114.9 0 208 93.1 208 208s-93.1 208-208 208zM256 33.3c-105.1 0-190.7 85.5-190.7 190.7 0 105.1 85.5 190.7 190.7 190.7 105.1 0 190.7-85.5 190.7-190.7 0-105.1-85.6-190.7-190.7-190.7z" />
<glyph unicode="&#xe62b;" d="M256 432c-114.9 0-208-93.1-208-208s93.1-208 208-208c114.9 0 208 93.1 208 208s-93.1 208-208 208v0z" />
<glyph unicode="&#xe62c;" d="M256 432c-114.9 0-208-93.1-208-208s93.1-208 208-208c114.9 0 208 93.1 208 208s-93.1 208-208 208zM256 33.3c-105.1 0-190.7 85.5-190.7 190.7 0 105.1 85.5 190.7 190.7 190.7 105.1 0 190.7-85.5 190.7-190.7 0-105.1-85.6-190.7-190.7-190.7zM256 224h-96v-17.3h113.3v145.3h-17.3z" />
<glyph unicode="&#xe62d;" d="M256 432c-114.9 0-208-93.1-208-208s93.1-208 208-208c114.9 0 208 93.1 208 208s-93.1 208-208 208zM273 207h-113v17h96v128h17v-145z" />
<glyph unicode="&#xe62e;" d="M340.2 320l-84.4-84.3-84 83.9-11.8-11.8 84-83.8-84-83.9 11.8-11.7 84 83.8 84.4-84.2 11.8 11.7-84.4 84.3 84.4 84.2z" />
<glyph unicode="&#xe62f;" d="M403.1 371.1c-81.2 81.2-212.9 81.2-294.2 0s-81.2-212.9 0-294.2c81.2-81.2 212.9-81.2 294.2 0s81.2 213 0 294.2zM390.8 89.2c-74.3-74.3-195.3-74.3-269.6 0s-74.3 195.3 0 269.6 195.3 74.3 269.6 0c74.4-74.3 74.4-195.3 0-269.6zM340.2 320l-84.4-84.2-84 83.8-11.8-11.8 84-83.8-84-83.8 11.8-11.8 84 83.8 84.4-84.2 11.8 11.8-84.4 84.2 84.4 84.2z" />
<glyph unicode="&#xe630;" d="M403.1 371.1c-81.2 81.2-212.9 81.2-294.2 0s-81.2-212.9 0-294.2c81.2-81.2 212.9-81.2 294.2 0s81.2 213 0 294.2zM352 139.8l-11.8-11.8-84.4 84.2-84-83.8-11.8 11.8 84 83.8-84 83.8 11.8 11.8 84-83.8 84.4 84.2 11.8-11.8-84.4-84.2 84.4-84.2z" />
<glyph unicode="&#xe631;" d="M193.2 98.8l-11.6-11.4 74.5-73.4 74.5 73.4-11.6 11.4-54.7-53.8v242.1h-16.4v-242.1zM399.2 315.6c0 1.2 0.2 2.3 0.2 3.5 0 63.5-52.9 114.9-116.8 114.9-46.1 0-85.8-26.8-104.4-65.4-8.1 4-17.1 6.3-26.8 6.3-29.6 0-54.1-23.3-58.9-51.3-35.2-12-60.6-43.4-60.6-82.4 0-49.1 40.1-89.2 89.6-89.2h91.5v16h-90.7c-40.9 0-74.2 33.2-74.2 73.7 0 31.4 20.2 57.5 50.2 67.7l8.4 2.8 1.5 8.7c3.6 21.3 22.1 38.8 43.9 38.8 6.9 0 13.7-1.6 19.9-4.7l13.5-6.7 6.5 13.6c16.6 34.4 52.1 56.6 90.4 56.6 55.3 0 100.9-42.8 100.9-97.6 0-13.1-0.2-20.1-0.2-20.1l15.2-0.1c36.7-0.5 65.6-30 65.6-66.4 0-36.3-29.8-66.1-66.5-66.3l-3.2-0.1h-97.2v-16h101c45 0 81.9 37.2 81.9 82.1 0 45-35.4 81.5-80.7 81.6z" />
<glyph unicode="&#xe632;" d="M248 45l-54.7 53.8-11.7-11.4 74.5-73.4 74.5 73.4-11.8 11.4-54.8-53.8v107h-16zM399.2 315.6c0 1.2 0.2 2.3 0.2 3.5 0 63.5-52.9 114.9-116.8 114.9-46.1 0-85.8-26.8-104.4-65.4-8.1 4-17.1 6.3-26.8 6.3-29.6 0-54.1-23.3-58.9-51.3-35.2-12-60.6-43.4-60.6-82.4 0-49.1 40.1-89.2 89.6-89.2h126.5v135h16v-135h134c45 0 81.9 37.2 81.9 82.1s-35.4 81.4-80.7 81.5z" />
<glyph unicode="&#xe633;" d="M399.3 247.2c0 1.2 0.2 2.4 0.2 3.6 0 64.3-52.8 117.2-116.8 117.2-46.1 0-85.8-27.9-104.4-67-8.1 4.1-17.1 6.4-26.8 6.4-29.6 0-54.1-23.7-58.9-52-35.2-12.2-60.6-44.2-60.6-83.8 0-49.8 40.1-91.6 89.6-91.6h276.4c45 0 82 38.9 82 84.3 0 45.6-35.4 82.8-80.7 82.9zM397.5 96.4l-3.2-0.4h-271.9c-40.9 0-74.2 34.9-74.2 76.1 0 31.9 20.2 58.4 50.2 68.8l8.4 3 1.5 8.8c3.6 21.6 22.1 39.3 43.9 39.3 6.9 0 13.7-1.6 19.9-4.8l13.5-6.8 6.5 13.7c16.6 34.9 52.1 58.2 90.4 58.2 55.3 0 100.9-44.1 100.9-99.7 0-13.3-0.2-20.3-0.2-20.3l15.2-0.1c36.7-0.5 65.6-30.5 65.6-67.4s-29.8-68.2-66.5-68.4z" />
<glyph unicode="&#xe634;" d="M193.3 219.6l-11.6 11.6 74.5 74.3 74.5-74.3-11.7-11.6-54.6 54.6v-241.8h-16.5v241.8zM399.3 296.4c0 1.2 0.2 2.4 0.2 3.6 0 64.3-52.8 116.4-116.8 116.4-46.1 0-85.8-27.1-104.4-66.3-8.1 4.1-17.1 6.4-26.8 6.4-29.6 0-54.1-23.6-58.9-52-35.2-12.1-60.6-46.7-60.6-86.3 0-49.7 40.1-90.2 89.6-90.2h91.4v16h-90.6c-40.9 0-74.2 33.5-74.2 74.6 0 31.8 20.2 61.2 50.2 71.6l8.4 2.9 1.5 8.8c3.6 21.6 22.1 39.3 43.9 39.3 6.9 0 13.7-1.6 19.9-4.8l13.5-6.8 6.5 13.7c16.6 34.9 52.1 57.4 90.4 57.4 55.3 0 100.9-43.3 100.9-98.9 0-13.3-0.2-20.3-0.2-20.3l15.2-0.1c36.6-0.5 65.6-33.4 65.6-70.3 0-36.8-29.8-66.9-66.5-67.1h-100.5v-16h101c45 0 82 37.3 82 82.8s-35.5 85.5-80.7 85.6z" />
<glyph unicode="&#xe635;" d="M248 128h16v-96h-16v96zM399.3 296.4c0 1.2 0.2 2.4 0.2 3.6 0 64.3-52.8 116.4-116.8 116.4-46.1 0-85.8-27.1-104.4-66.3-8.1 4.1-17.1 6.4-26.8 6.4-29.6 0-54.1-23.6-58.9-52-35.2-12.1-60.6-46.7-60.6-86.3 0-49.7 40.1-90.2 89.6-90.2h126.4v146.2l-54.7-54.5-11.6 11.6 74.5 74.3 74.5-74.3-11.8-11.6-54.9 54.5v-146.2h134c45 0 82 37.3 82 82.8s-35.5 85.5-80.7 85.6z" />
<glyph unicode="&#xe636;" d="M399.3 247.2c0 1.2 0.2 2.4 0.2 3.6 0 64.3-52.8 117.2-116.8 117.2-46.1 0-85.8-27.9-104.4-67-8.1 4.1-17.1 6.4-26.8 6.4-29.6 0-54.1-23.7-58.9-52-35.2-12.2-60.6-44.2-60.6-83.8 0-49.8 40.1-91.6 89.6-91.6h276.4c45 0 82 38.9 82 84.3 0 45.6-35.4 82.8-80.7 82.9z" />
<glyph unicode="&#xe637;" d="M377.3 266.6c-1.4 3.9-3 7.8-4.8 11.6-5.5 11.5-12.6 22-21.2 31.4-1.3 1.4-2.6 2.7-3.8 3.9-1.5 1.5-3.2 3.1-4.8 4.6-9.5 8.6-20.2 15.7-31.8 21-3.8 1.8-7.7 3.2-10.9 4.3 0 0-6.9 2.4-10.5 3.3-3.7 0.9-8.3 1.9-8.3 1.9-6.2 1.2-12.4 1.9-18.7 2.2-3.8 0.2-7.6 0.2-11.3 0-12.9-0.6-25.6-3.1-37.7-7.5-3.9-1.4-7.8-3-11.6-4.8-11.2-5.4-21.6-12.3-30.9-20.7-1.6-1.4-3.1-2.9-4.5-4.3s-2.9-2.9-4.3-4.5c-8.7-9.6-15.9-20.4-21.3-32.1-1.5-3.3-2.9-6.8-4.2-10.3-4.4-12.1-6.9-24.8-7.5-37.7-0.2-3.7-0.2-7.5 0-11.3 0.3-6.1 1-12.2 2.1-18.3 0 0 0.8-3.9 2.6-10.5 1.8-6.7 3.1-10 3.1-10 1.2-3.3 2.5-6.5 4-9.6 5.4-11.6 12.4-22.3 21-31.8 1.5-1.7 3-3.3 4.6-4.8 1.2-1.2 2.5-2.4 3.9-3.8 9.4-8.6 20-15.8 31.4-21.2 3.7-1.8 7.6-3.4 11.6-4.8 11.9-4.3 24.3-6.8 37-7.4 4.3-0.2 8.6-0.2 12.8 0 12.6 0.6 25 3 36.8 7.3 3.1 1.1 6.8 2.4 10.7 4.2 10.4 4.8 20.9 11.5 29.8 19.2 0 0 2.6 2.4 6.4 6.2s6.4 6.8 6.4 6.8c7.7 8.8 13.8 18 18.9 28.7 2.2 4.6 4 8.7 5.2 12.3 4.2 11.9 6.7 24.3 7.3 36.9 0.2 4.2 0.2 8.6 0 12.8-0.8 12.5-3.2 24.9-7.5 36.8zM145.1 218.3c-0.1 3.3-0.1 6.6 0 9.9 0.5 11.2 2.7 22.4 6.5 33 1.1 3 2.3 6 3.7 9 4.6 10 10.9 19.5 18.6 28.1 1.2 1.3 2.5 2.7 3.8 3.9 1.3 1.3 2.6 2.5 3.9 3.8 8.2 7.5 17.4 13.5 27 18.1 3.3 1.6 6.7 3 10.1 4.2 10.7 3.8 21.8 6 33 6.5 3.3 0.1 6.6 0.2 9.9 0 5.5-0.2 10.9-0.9 16.3-1.9l-27.6-103-103.5-27.7c-0.9 5.3-1.5 10.7-1.7 16.1zM303.7 121.1c-3.1-1.4-6-2.5-9.2-3.6-10.4-3.7-21.3-5.8-32.2-6.3-3.7-0.2-7.5-0.1-11.2 0-11 0.6-21.9 2.7-32.3 6.5-3.4 1.2-6.8 2.6-10.1 4.2-9.8 4.7-19.1 10.9-27.5 18.6-1.2 1.1-2.3 2.2-3.4 3.3-1.4 1.4-2.7 2.8-4 4.2-7.7 8.5-13.8 17.9-18.4 27.8-1.4 3.1-2.7 6.3-3.9 9.5-0.2 0.5-0.3 0.7-0.4 1.2l102.8 27.3 75.9-75.9c-7.6-6.6-16.7-12.5-26.1-16.8zM368.8 217.6c-0.5-10.9-2.6-21.8-6.4-32.3-1.3-3.6-3.1-7.5-4.7-10.9-4.2-8.8-9.3-16.9-16.6-25.2l-75.9 75.9 28 103.7c0.4-0.1 0.9-0.3 1.3-0.4 3.2-1.1 6.5-2.3 9.6-3.8 9.9-4.6 19.3-10.7 27.8-18.4 1.4-1.3 2.8-2.6 4.2-4 1.1-1.1 2.2-2.3 3.3-3.5 7.7-8.4 13.9-17.7 18.6-27.5 1.6-3.3 3-6.7 4.2-10.1 3.8-10.5 5.9-21.4 6.5-32.4 0.2-3.6 0.2-7.4 0.1-11.1zM448.2 207.3v32l-33.3 8.7c-0.7 4.4-1.6 8.8-2.6 13.2l27.6 20.9-12.2 29.6-34.4-4.8c-2.3 3.7-4.9 7-7.5 10.6l17.7 29.7-22.6 22.6-30.2-17.4c-3.5 2.6-7 5.1-10.7 7.3l5.3 35-29.5 12.3-21.6-28.3c-4.1 1-8.2 1.9-12.3 2.6l-8.7 34.7h-32l-9.2-34.9c-4-0.6-8.1-1.5-12.1-2.4l-21.5 29-29.6-12.3 4.8-35.7c-3.8-2.3-8-4.5-11.7-7.2l-31.3 18.7-22.6-22.6 18.8-31.5c-2.4-3.4-4.5-7-6.7-10.5l-35.5 5-12.2-29.6 28.9-21.7c-1-4-1.8-8.1-2.4-12.2l-34.8-8.9v-32l34.7-8.9c0.6-4.2 1.5-8.3 2.4-12.5l-28.4-21.3 12.3-29.5 35 5c2.3-3.8 4.5-7.7 7.1-11.3l-17.9-30.6 22.6-22.6 30.2 18.2c3.6-2.6 7.4-5 11.2-7.3l-4.5-34.3 29.6-12.2 20.6 27.8c4.4-1.1 8.9-1.8 13.4-2.5l8.8-33.1h32l8.3 33.1c4.6 0.7 9.1 1.5 13.6 2.6l20.7-27.1 29.6 12.2-5 33.7c3.6 2.2 6.8 4.9 10.2 7.4l29-16.9 22.6 22.6-16.8 28.9c2.8 3.8 5.5 7.4 7.9 11.4l33.8-4.8 12.3 29.5-27.2 20.5c1.1 4.5 2 8.9 2.7 13.5l33.3 8.6zM402.6 172.4l17.3-13.1-2.8-6.7-21.5 3-10.4 1.5-5.5-9c-2.3-3.7-4.8-7.3-7.1-10.3l-6.3-8.5 5.1-8.9 10.6-18.2-5.2-5.2-27.3 15.9-8.4-6.2c-0.6-0.4-1.1-0.8-1.6-1.2-2.7-2-5.2-3.8-7.6-5.3l-9-5.5 1.6-10.5 3.2-21.3-6.7-2.8-13.2 17.3-6.4 8.3-10.2-2.5c-3.9-1-8.1-1.8-12.2-2.4l-10.5-1.6-2.5-10.2-5.3-21h-7.2l-5.7 21.2-2.7 10.1-10.3 1.6c-4.1 0.6-8.2 1.4-12 2.4l-10.3 2.5-6.3-8.5-13.2-17.9-6.7 2.8 3 22.2 1.4 10.3-8.9 5.4c-3.8 2.3-7 4.5-10 6.6l-8.6 6.3-9.3-5.7-19.5-11.8-5.1 5.1 11.7 20 5.3 9.1-6.1 8.5c-2 2.8-4 5.9-6.5 10l-5.5 9.1-10.5-1.5-22.7-3.2-2.7 6.6 26.9 20.2-2.4 10.2c-0.9 3.7-1.6 7.5-2.2 11.2l-1.6 10.4-10.3 2.6-22.7 5.9v7.2l33 8.4 1.7 10.4c0.6 3.8 1.3 7.5 2.2 11l2.4 10.2-27.3 20.5 2.7 6.6 33.7-4.8 5.5 9c1.9 3.1 3.9 6.4 6.1 9.3l6.2 8.5-5.6 9.2-12.4 20.8 5 5 29.8-17.8 8.6 6.2c2.6 1.9 5.7 3.8 8.9 5.7l1.5 0.9 8.9 5.4-1.4 10.3-3.1 23.5 6.7 2.8 20.3-27.4 10.3 2.4c3.6 0.8 7.2 1.6 10.9 2.1l10.3 1.6 2.7 10.2 6.1 23h7.2l5.7-22.7 2.6-10.3 10.5-1.7c3.7-0.6 7.4-1.3 11.1-2.2l10.1-2.4 6.3 8.3 13.8 18.5 6.6-2.8-3.4-22.6-1.6-10.5 9.1-5.5c3.1-1.9 6.3-4 9.7-6.5l8.4-6.1 8.8 5 19.5 11.2 5.1-5.1-11.3-19-5.4-9 6.3-8.5c2.7-3.7 4.8-6.8 6.6-9.6l5.5-8.9 10.4 1.5 22.1 3.1 2.8-6.7-26.2-19.7 2.5-10.2c0.9-3.8 1.7-7.8 2.4-11.9l1.6-10.4 10.1-2.6 21.2-5.5v-7.2l-21.2-5.5-10.2-2.6-1.6-10.4c-0.6-4.1-1.4-8.2-2.4-12.1l-2.5-10.2 8.7-6.7z" />
<glyph unicode="&#xe638;" d="M448.2 207.3v32l-33.3 8.7c-0.7 4.4-1.6 8.8-2.6 13.2l27.6 20.9-12.2 29.6-34.4-4.8c-2.3 3.7-4.9 7-7.5 10.6l17.7 29.7-22.6 22.6-30.2-17.4c-3.5 2.6-7 5.1-10.7 7.3l5.3 35-29.5 12.3-21.6-28.3c-4.1 1-8.2 1.9-12.3 2.6l-8.7 34.7h-32l-9.2-34.9c-4-0.6-8.1-1.5-12.1-2.4l-21.5 29-29.6-12.3 4.8-35.7c-3.8-2.3-8-4.5-11.7-7.2l-31.3 18.7-22.6-22.6 18.8-31.5c-2.4-3.4-4.5-7-6.7-10.5l-35.5 5-12.2-29.6 28.9-21.7c-1-4-1.8-8.1-2.4-12.2l-34.8-8.9v-32l34.7-8.9c0.6-4.2 1.5-8.3 2.4-12.5l-28.4-21.3 12.3-29.5 35 5c2.3-3.8 4.5-7.7 7.1-11.3l-17.9-30.6 22.6-22.6 30.2 18.2c3.6-2.6 7.4-5 11.2-7.3l-4.5-34.3 29.6-12.2 20.6 27.8c4.4-1.1 8.9-1.8 13.4-2.5l8.8-33.1h32l8.3 33.1c4.6 0.7 9.1 1.5 13.6 2.6l20.7-27.1 29.6 12.2-5 33.7c3.6 2.2 6.8 4.9 10.2 7.4l29-16.9 22.6 22.6-16.8 28.9c2.8 3.8 5.5 7.4 7.9 11.4l33.8-4.8 12.3 29.5-27.2 20.5c1.1 4.5 2 8.9 2.7 13.5l33.3 8.6zM384.7 216.8c-0.6-12.6-3.1-25-7.3-36.9-1.3-3.6-3-7.7-5.2-12.3-5.1-10.7-11.1-19.9-18.9-28.7 0 0-2.6-2.9-6.4-6.8-3.8-3.8-6.4-6.2-6.4-6.2-8.9-7.7-19.4-14.4-29.8-19.2-3.9-1.8-7.5-3.1-10.7-4.2-11.9-4.2-24.3-6.7-36.8-7.3-4.2-0.2-8.5-0.2-12.8 0-12.6 0.7-25.1 3.2-37 7.4-3.9 1.4-7.8 3-11.6 4.8-11.5 5.5-22 12.6-31.4 21.2-1.4 1.3-2.7 2.6-3.9 3.8-1.5 1.5-3.1 3.2-4.6 4.8-8.6 9.5-15.7 20.2-21 31.8-1.4 3.1-2.8 6.3-4 9.6 0 0-1.3 3.4-3.1 10-1.8 6.7-2.6 10.5-2.6 10.5-1.1 6.1-1.8 12.2-2.1 18.3-0.2 3.8-0.2 7.6 0 11.3 0.6 12.9 3.1 25.6 7.5 37.7 1.3 3.5 2.7 7 4.2 10.3 5.4 11.7 12.6 22.5 21.3 32.1 1.4 1.6 2.9 3.1 4.3 4.5s2.9 2.9 4.5 4.3c9.2 8.4 19.6 15.4 30.9 20.7 3.8 1.8 7.6 3.4 11.6 4.8 12.1 4.4 24.8 6.9 37.7 7.5 3.7 0.2 7.5 0.2 11.3 0 6.2-0.3 12.5-1 18.7-2.2 0 0 4.6-1 8.3-1.9s10.5-3.3 10.5-3.3c3.3-1.2 7.1-2.5 10.9-4.3 11.6-5.4 22.3-12.4 31.8-21 1.7-1.5 3.3-3 4.8-4.6 1.2-1.2 2.4-2.5 3.8-3.9 8.6-9.4 15.8-20 21.2-31.4 1.8-3.7 3.4-7.6 4.8-11.6 4.3-11.9 6.8-24.3 7.4-37 0.3-4.1 0.3-8.4 0.1-12.6zM278 333c-5.4 1-10.9 1.7-16.3 1.9-3.3 0.1-6.6 0.1-9.9 0-11.2-0.5-22.4-2.7-33-6.5-3.4-1.2-6.8-2.6-10.1-4.2-9.6-4.6-18.7-10.6-27-18.1-1.3-1.2-2.7-2.5-3.9-3.8-1.3-1.3-2.5-2.6-3.8-3.9-7.8-8.6-14-18.1-18.6-28.1-1.4-3-2.6-6-3.7-9-3.8-10.7-6-21.8-6.5-33-0.2-3.3-0.2-6.6 0-9.9 0.2-5.4 0.8-10.7 1.8-16l103.4 27.6 27.6 103zM151 186.5c0.2-0.5 0.3-0.7 0.4-1.2 1.1-3.2 2.4-6.4 3.9-9.5 4.6-9.9 10.7-19.3 18.4-27.8 1.3-1.4 2.6-2.8 4-4.2 1.1-1.1 2.3-2.2 3.4-3.3 8.4-7.7 17.7-13.9 27.5-18.6 3.3-1.6 6.7-3 10.1-4.2 10.5-3.8 21.4-6 32.3-6.5 3.7-0.2 7.5-0.2 11.2 0 10.9 0.5 21.8 2.6 32.2 6.3 3.2 1.1 6.1 2.2 9.2 3.6 9.4 4.3 18.5 10.3 26.1 16.8l-75.9 75.9-102.8-27.3zM362.2 261.2c-1.2 3.4-2.6 6.8-4.2 10.1-4.7 9.8-10.9 19.1-18.6 27.5-1.1 1.2-2.2 2.3-3.3 3.5-1.4 1.4-2.8 2.7-4.2 4-8.5 7.7-17.9 13.8-27.8 18.4-3.1 1.4-6.4 2.6-9.6 3.8-0.4 0.1-0.9 0.3-1.3 0.4l-28-103.7 75.9-75.9c7.3 8.3 12.4 16.4 16.6 25.2 1.7 3.5 3.5 7.4 4.7 10.9 3.7 10.4 5.8 21.3 6.4 32.3 0.2 3.7 0.2 7.5 0 11.2-0.6 10.9-2.8 21.8-6.6 32.3z" />
<glyph unicode="&#xe639;" d="M368 80h-272v256h208.1l16 16h-240.1v-288h304v224.1l-16-16zM237.6 195.9l-9.7 9.7 171.3 171.3-11.3 11.4-179.9-180v-32.3h32.2l180.1 180-11.4 11.3zM444.2 399.7l-12.5 12.5c-2.7 2.4-6.2 3.8-10 3.8s-7.3-1.5-9.9-3.8l-12.1-12.2 0.1-0.1 11.2-11.3 21-21 12.2 12.2c2.4 2.6 3.8 6.1 3.8 9.9 0.1 3.8-1.4 7.3-3.8 10z" />
<glyph unicode="&#xe63a;" d="M208 208.3v-32.3h32.2l180.1 180-32.4 32.3zM444.2 399.7l-12.5 12.5c-2.7 2.4-6.2 3.8-10 3.8s-7.3-1.5-9.9-3.8l-12.1-12.2 0.1-0.1 11.2-11.3 21-21 12.2 12.2c2.4 2.6 3.8 6.1 3.8 9.9 0.1 3.8-1.4 7.3-3.8 10zM255.5 160h-63.5v63.6l128 128h-0.3l0.4 0.4h-240.1v-288h304v222.2l0.1 2.5z" />
<glyph unicode="&#xe63b;" d="M256 432c-114.9 0-208-93.1-208-208s93.1-208 208-208c114.9 0 208 93.1 208 208s-93.1 208-208 208zM256 414.7c105.1 0 190.7-85.5 190.7-190.7 0-46.5-16.7-89.1-44.4-122.2-20 8.2-65.9 24.1-92.9 32.1-2.4 0.7-2.7 0.9-2.7 10.7 0 8.1 3.3 16.3 6.6 23.3 3.6 7.5 7.7 20.2 9.2 31.6 4.2 4.9 10 14.5 13.6 32.9 3.2 16.2 1.7 22.1-0.4 27.6-0.2 0.6-0.5 1.2-0.6 1.7-0.8 3.8 0.3 23.5 3.1 38.8 1.9 10.5-0.5 32.8-14.9 51.3-9.1 11.7-26.6 26-58.5 28h-17.5c-31.4-2-48.8-16.3-58-28-14.5-18.5-16.9-40.8-15-51.3 2.8-15.3 3.9-35 3.1-38.8-0.2-0.7-0.4-1.2-0.6-1.8-2.1-5.5-3.7-11.4-0.4-27.6 3.7-18.4 9.4-28 13.6-32.9 1.5-11.4 5.7-24 9.2-31.6 2.6-5.5 3.8-13 3.8-23.6 0-9.9-0.4-10-2.6-10.7-28.1-8.3-72.6-24.3-90.4-32-27.9 33.2-44.7 75.9-44.7 122.5 0 105.1 85.6 190.7 190.7 190.7z" />
<glyph unicode="&#xe63c;" d="M256 432c-114.9 0-208-93.1-208-208s93.1-208 208-208c114.9 0 208 93.1 208 208s-93.1 208-208 208zM256 33.3c-58.6 0-111.1 26.6-146.1 68.3 17.8 7.7 62.2 23.7 90.3 31.9 2.2 0.7 2.6 0.8 2.6 10.7 0 10.6-1.2 18.1-3.8 23.6-3.5 7.5-7.7 20.2-9.2 31.6-4.2 4.9-9.9 14.5-13.6 32.9-3.2 16.2-1.7 22.1 0.4 27.6 0.2 0.6 0.5 1.2 0.6 1.8 0.8 3.7-0.3 23.5-3.1 38.8-1.9 10.5 0.5 32.8 15 51.3 9.1 11.7 26.6 26 58 28h17.5c31.9-2 49.4-16.3 58.5-28 14.5-18.5 16.9-40.8 14.9-51.3-2.8-15.3-3.9-35-3.1-38.8 0.1-0.6 0.4-1.2 0.6-1.7 2.1-5.5 3.7-11.4 0.4-27.6-3.7-18.4-9.4-28-13.6-32.9-1.5-11.4-5.7-24-9.2-31.6-3.3-6.9-6.6-15.1-6.6-23.3 0-9.9 0.4-10 2.7-10.7 26.7-7.9 72.7-23.8 93-32.1-35-41.8-87.5-68.5-146.2-68.5z" />
<glyph unicode="&#xe63d;" d="M236.824 270c40.803 0 69.274-28.328 69.274-68.548 0-26.067-12.647-37.26-27.954-37.26-10.204 0-17.581 4.906-20.925 12.42h-0.17c-3.885-7.697-11.785-12.243-23.738-12.243-12.671 0-21.272 5.589-25.165 17.135-1.403 4.723-2.266 9.791-2.266 19.060 0 9.276 0.863 14.344 2.266 19.060 3.892 11.546 12.494 17.142 24.641 17.142 10.351 0 17.21-4.37 20.201-9.446h0.362v6.118c0 1.050 0.702 1.579 1.411 1.579h9.318c1.063 0 1.565-0.529 1.565-1.579v-43.025c0-10.327 5.997-14.858 12.502-14.858 8.27 0 15.461 6.118 15.461 25.89 0 33.749-22.143 57.185-56.78 57.185s-56.972-23.092-56.972-57.185c0-34.293 22.328-57.377 56.972-57.377 16.871 0 27.955 3.151 37.989 8.058 1.048 0.522 1.919 0.345 2.443-0.705l2.813-6.992c0.524-0.866 0.185-1.755-0.709-2.277-11.762-6.286-24.432-9.445-42.544-9.445-40.965 0-69.458 27.983-69.458 68.747 0.007 40.388 28.494 68.548 69.466 68.548v0zM235.946 175.907c8.085 0 13.341 3.503 16 10.841 1.041 3.159 1.403 6.824 1.403 13.823 0 6.992-0.362 10.672-1.403 13.808-2.659 7.36-7.916 10.856-16 10.856-8.101 0-13.364-3.496-15.831-10.856-1.064-3.135-1.588-6.815-1.588-13.808 0-7 0.524-10.664 1.588-13.823 2.466-7.337 7.738-10.841 15.831-10.841v0z" />
<glyph unicode="&#xe63e;" d="M256 189.091c-98.131 0-175 34.499-175 78.546v69.818c0 4.826 3.911 8.728 8.75 8.728s8.75-3.901 8.75-8.728v-69.818c0-36 83.002-61.091 157.5-61.091s157.5 25.091 157.5 61.091v69.818c0 4.826 3.911 8.728 8.75 8.728s8.75-3.901 8.75-8.728v-69.818c0-44.046-76.868-78.546-175-78.546v0zM256 32c-98.131 0-175 34.499-175 78.546v78.546c0 4.826 3.911 8.728 8.75 8.728s8.75-3.901 8.75-8.728v-78.546c0-36 83.002-61.091 157.5-61.091s157.5 25.091 157.5 61.091v78.546c0 4.826 3.911 8.728 8.75 8.728s8.75-3.901 8.75-8.728v-78.546c0-44.046-76.868-78.546-175-78.546v0zM256 110.546c-98.131 0-175 34.499-175 78.546v78.546c0 4.826 3.911 8.728 8.75 8.728s8.75-3.901 8.75-8.728v-78.546c0-36 83.002-61.091 157.5-61.091s157.5 25.091 157.5 61.091v78.546c0 4.826 3.911 8.728 8.75 8.728s8.75-3.901 8.75-8.728v-78.546c0-44.046-76.868-78.546-175-78.546v0zM256 258.909c-98.131 0-175 34.499-175 78.546s76.869 78.546 175 78.546c98.132 0 175-34.499 175-78.546s-76.868-78.546-175-78.546v0zM256 398.546c-74.498 0-157.5-25.091-157.5-61.091s83.002-61.091 157.5-61.091c74.498 0 157.5 25.091 157.5 61.091s-83.002 61.091-157.5 61.091v0z" />
<glyph unicode="&#xe63f;" d="M288 336v-16h112v-272h-288v272h112v16h-128v-304h320v304zM193.1 227.7l-11.6-11.6 74.5-74.5 74.5 74.5-11.6 11.6-54.7-54.7v243h-16.4v-243z" />
<glyph unicode="&#xe640;" d="M264 336v-163l54.8 54.7 11.6-11.6-74.4-74.5-74.5 74.5 11.7 11.6 54.8-54.7v163h-152v-304h320v304zM248 416h16v-80h-16v80z" />
<glyph unicode="&#xe641;" d="M284 379.428h-18.334v-91.428h91.666v18.286h-73.334v73.143zM164.5 223.572h91.666v18.286h-91.666v-18.286zM164.5 170h183.333v18.286h-183.333v-18.286zM164.5 116.428h183.333v18.286h-183.333v-18.286zM119 416v-384h275v298.286l-85.594 85.714h-189.406zM375.666 50.286h-238.333v347.428h163.511l74.823-74.971v-272.457z" />
<glyph unicode="&#xe642;" d="M80 176h352v-16h-352v16zM80 232h352v-16h-352v16zM80 288h352v-16h-352v16z" />
<glyph unicode="&#xe643;" d="M64 352v-256h384v256h-384zM256 212.1l-162.8 123.9h325.6l-162.8-123.9zM80 112v213.9l115.1-87.6-68.1-77.3 2-2 78.9 69.6 48.1-36.6 48.1 36.6 78.9-69.6 2 2-68.1 77.4 115.1 87.5v-213.9h-352z" />
<glyph unicode="&#xe644;" d="M448 96v242.2l-131.1-99.8 68.1-77.4-2-2-78.9 69.6-48.1-36.6-48.1 36.6-78.9-69.6-2 2 68 77.4-131 99.6v-242zM439.7 352h-367.7l184-139.9z" />
<glyph unicode="&#xe645;" d="M288 183.7l91.9-91.8-49.9-49.9h108v108l-49.9-49.9-91.8 91.9zM224 264.3l-91.9 91.8 49.9 49.9h-108v-108l49.9 49.9 91.8-91.9z" />
<glyph unicode="&#xe646;" d="M447.1 223.8c-45.3 52.2-107.9 112.2-191.1 112.2-33.6 0-64.4-9.5-96.9-29.8-27.4-17.2-55.5-41.4-94.1-81.2l-1-1 6.7-6.9c55.1-56.4 102.7-105.1 185.3-105.1 36.5 0 71.9 11.9 108.2 36.4 30.9 20.9 57.2 47.4 78.3 68.8l5.5 5.5-0.9 1.1zM256 320c33.1 0 64.9-9.5 97.2-30.6 23.9-15.6 47.4-36.7 73.7-66.1-38.3-38.7-95.8-95.3-170.9-95.3-34.2 0-64.2 8.4-94.2 28.2-27.5 18.1-52.3 43.3-76.2 67.8 59.1 59.7 108.4 96 170.4 96zM256 144c44.1 0 80 35.9 80 80s-35.9 80-80 80c-44.1 0-80-35.9-80-80s35.9-80 80-80zM256 287.7c35.2 0 64-28.6 64-63.7s-28.8-63.7-64-63.7c-35.2 0-63.9 28.6-63.9 63.7s28.7 63.7 63.9 63.7zM288 224v0c0-17.5-14.4-32-31.8-32s-32.2 15.2-32.2 32.7 15.8 31.3 32 31.3v16c-26.5 0-47.9-21.6-47.9-48.2s21.5-48.1 47.9-48.1 48 21.6 48 48.1v0.2h-16z" />
<glyph unicode="&#xe647;" d="M447.1 223.8c-45.3 52.2-107.9 112.2-191.1 112.2-33.6 0-64.4-9.5-96.9-29.8-27.4-17.2-55.5-41.4-94.1-81.2l-1-1 6.7-6.9c55.1-56.4 102.7-105.1 185.3-105.1 36.5 0 71.9 11.9 108.2 36.4 30.9 20.9 57.2 47.4 78.3 68.8l5.5 5.5-0.9 1.1zM256 144c-44.1 0-80 35.9-80 80s35.9 80 80 80c44.1 0 80-35.9 80-80s-35.9-80-80-80zM250.4 253.2c0 6.9 2 13.4 5.5 18.8-26.5 0-47.9-21.6-47.9-48.2s21.5-48.1 47.9-48.1 48 21.5 48 48.1v0c-5.4-3.5-11.9-5.5-18.8-5.5-19.1 0.1-34.7 15.7-34.7 34.9z" />
<glyph unicode="&#xe648;" d="M284 379.428h-18.334v-91.428h91.666v18.286h-73.334v73.143zM119 416v-384h275v298.286l-85.594 85.714h-189.406zM375.666 50.286h-238.333v347.428h163.511l74.823-74.971v-272.457z" />
<glyph unicode="&#xe649;" d="M304 384h-16v-80h80v16h-64v64zM325.3 416h-165.3v-48h-48v-336h240v48h48v261l-74.7 75zM336 48h-208v304h32v-272h176v-32zM384 96h-208v304h142.7l65.3-65.6v-238.4z" />
<glyph unicode="&#xe64a;" d="M144 64v304h-32v-336h240v32h-192zM325.3 416h-165.3v-336h240v261l-74.7 75zM368 304h-80v80h16v-64h64v-16z" />
<glyph unicode="&#xe64b;" d="M368 368c-11-1.4-24.9-3.5-39.7-3.5-23.1 0-44 5.7-65.2 10.2-21.5 4.6-43.7 9.3-67.2 9.3-46.9 0-62.8-10.1-64.4-11.2l-3.4-2.4v-306.4h16v143.3c6 2.5 21.8 6.9 51.9 6.9 21.8 0 42.2-8.3 63.9-13 22-4.7 44.8-9.6 69.5-9.6 14.7 0 27.7 2 38.7 3.3 6 0.7 11.3 1.4 16 2.2v173.4c-4.7-0.9-10.1-1.7-16.1-2.5zM368 211c-11-1.4-23.9-3.5-38.7-3.5-23.1 0-45 4.7-66.2 9.2-21.5 4.6-43.6 13.3-67.1 13.3-25.7 0-41.9-3-51.9-6v137.3c6 2.5 21.9 6.8 51.9 6.8 21.8 0 42.2-4.3 63.9-9 22-4.7 43.8-10.6 68.5-10.6 14.7 0 28.7 2 39.7 3.3l-0.1-140.8z" />
<glyph unicode="&#xe64c;" d="M368 368c-11-1.4-24.9-3.5-39.7-3.5-23.1 0-44 5.7-65.2 10.2-21.5 4.6-43.7 9.3-67.2 9.3-46.9 0-62.8-10.1-64.4-11.2l-3.4-2.4v-306.4h16v143.3c6 2.5 21.8 6.9 51.9 6.9 21.8 0 42.2-8.3 63.9-13 22-4.7 44.8-9.6 69.5-9.6 14.7 0 27.7 2 38.7 3.3 6 0.7 11.3 1.4 16 2.2v173.4c-4.7-0.9-10.1-1.7-16.1-2.5z" />
<glyph unicode="&#xe64d;" d="M223.5 336c-4.7 0-10.7 9.9-18.5 19-7.1 8.3-14.7 13-20.5 13h-60.3c-15.5 0-28.2-8.9-28.2-24.3v-234.6c0-15.5 12.7-29.1 28.2-29.1h187.8v16l88 88h16v127.2c0 15.5-10 24.8-25.5 24.8h-167zM312 96h-187.8c-6.5 0-12.2 6.2-12.2 13.1v162.9h288v-88l-88-88zM400 169c-40.325 0-73-32.675-73-73s32.675-73 73-73c40.325 0 73 32.675 73 73s-32.675 73-73 73v0zM400 38c-31.966 0-58 26.004-58 58s26.034 58 58 58c31.966 0 58-26.034 58-58s-26.034-58-58-58v0zM168 352h11.3c3.9 0 8.6-1.6 14.3-8.3 12.1-14.3 15.5-23.7 29.9-23.7h167c6.6 0 9.5-2.2 9.5-8.8v-23.2h-288v55.7c0 9 10.3 8.3 12.2 8.3h43.8zM408.425 132h-16.034v-28.575h-28.392v-16.034h28.392v-28.392h16.034v28.392h28.575v16.034h-28.575v28.575z" />
<glyph unicode="&#xe64e;" d="M224.969 343.733c-0.774 0.597-1.687 1.496-2.855 2.831-1.535 1.754-8.060 10.063-9.216 11.468-0.622 0.757-1.226 1.478-1.824 2.175-8.384 9.801-17.898 15.793-26.574 15.793h-60.3c-20.462 0-36.2-12.776-36.2-32.3v-234.6c0-20.014 16.366-37.1 36.2-37.1h265.3c19 0 30.993 14.38 34.401 35.846 0.178 0.926 0.178 0.926 1.157 6.121 1.305 6.925 1.305 6.925 3.155 16.737 4.351 23.085 4.351 23.085 9.574 50.788s5.222 27.702 9.574 50.787c1.849 9.811 1.849 9.811 3.155 16.737 0.531 2.814 0.531 2.814 0.884 4.689 0.141 0.749 0.141 0.749 0.233 1.236 1.89 9.816 1.055 18.806-3.578 26.14-5.839 9.242-14.233 14.127-24.055 14.127v15.993c0 19.839-13.493 32.8-33.5 32.8h-167c0.616 0 1.111-0.113 1.469-0.267zM279.589 279.207c27.618 0 27.618 0 53.918 0 30.469 0 30.469 0 54.524 0 19.63 0 19.63 0 27.97 0 10.283 0 15.914-2.536 18.528-6.673 2.117-3.351 2.584-8.381 1.467-14.174-0.178-0.943-0.178-0.943-0.319-1.692-0.353-1.875-0.353-1.875-0.884-4.689-1.305-6.925-1.305-6.925-3.155-16.737-4.351-23.085-4.351-23.085-9.574-50.788s-5.222-27.702-9.574-50.788c-1.849-9.811-1.849-9.811-3.155-16.737-0.979-5.194-0.979-5.194-1.197-6.349-2.348-14.764-8.868-22.582-18.639-22.582h-265.3c-10.84 0-20.2 9.772-20.2 21.1l-0.076-1.101c0.042 0.303 0.042 0.303 0.243 1.748 0.198 1.425 0.428 3.077 0.687 4.939 0.74 5.319 1.564 11.246 2.454 17.628 2.54 18.236 5.085 36.473 7.468 53.493 0.063 0.448 0.063 0.448 0.126 0.897 5.709 40.776 9.555 67.921 10.645 74.983 1.857 12.025 8.919 17.521 20.293 17.521 13.483 0 60.928 0 133.749 0zM408 295.207v0c-3.657 0-8.409 0-19.97 0-24.055 0-24.055 0-54.524 0-26.299 0-26.299 0-53.918 0-72.82 0-120.265 0-133.749 0-18.965 0-32.992-10.916-36.106-31.079-0.749-4.853-2.748-18.815-5.734-39.995v119.567c0 9.867 7.925 16.3 20.2 16.3h60.3c3.062 0 8.772-3.596 14.421-10.201 0.529-0.617 1.065-1.256 1.62-1.931 0.917-1.114 7.662-9.703 9.531-11.839 4.626-5.289 8.27-8.029 13.428-8.029h167c11.311 0 17.5-5.945 17.5-16.8v-15.993z" />
<glyph unicode="&#xe64f;" d="M390.5 336c0 0-154.7 0-167 0-4.7 0-10.7 9.9-18.5 19-7.1 8.3-14.7 13-20.5 13-7.5 0-60.3 0-60.3 0-15.5 0-28.2-8.9-28.2-24.3v-234.6c0-15.5 12.7-29.1 28.2-29.1h266.3c15.5 0 25.5 13.6 25.5 29.1v202.1c0 15.5-10 24.8-25.5 24.8zM124.2 352h43.8c0 0 7.4 0 11.3 0s8.6-1.6 14.3-8.3c12.1-14.3 15.5-23.7 29.9-23.7h167c6.6 0 9.5-2.2 9.5-8.8v-23.2h-288v55.7c0 9 10.3 8.3 12.2 8.3zM390.5 96h-266.3c-6.5 0-12.2 6.2-12.2 13.1v162.9h288v-162.9c0-6-2.6-13.1-9.5-13.1z" />
<glyph unicode="&#xe650;" d="M96 109.1c0-15.5 12.7-29.1 28.2-29.1h266.3c15.5 0 25.5 13.6 25.5 29.1v162.9h-320v-162.9zM416 311.2c0 15.5-10 24.8-25.5 24.8 0 0-154.7 0-167 0-4.7 0-10.7 9.9-18.5 19-7.1 8.3-14.7 13-20.5 13-7.5 0-60.3 0-60.3 0-15.5 0-28.2-8.9-28.2-24.3v-55.7h320v23.2z" />
<glyph unicode="&#xe651;" d="M256.8 320c-25.7 0-49.8-10-67.9-28.1s-28.1-42.2-28.1-67.9 10-49.7 28.1-67.9c18.1-18.1 42.3-28.1 67.9-28.1 25.7 0 49.8 10 67.9 28.1s28.1 42.2 28.1 67.9-10 49.7-28.1 67.9c-18.1 18.1-42.2 28.1-67.9 28.1zM256.8 144c-44.3 0-80 35.9-80 80s35.7 80 80 80c44.3 0 80-35.9 80-80s-35.7-80-80-80zM424.5 264h-15.2c-12.4 0-22.8 10.4-22.8 23.2 0 6.4 2.7 12.1 7.5 16.4l9.8 9.6c9.7 9.6 9.7 25.2 0 34.9l-22.3 22.1c-4.4 4.4-10.9 7-17.5 7s-13-2.6-17.5-7l-9.4-9.4c-4.5-5-10.7-7.7-17.2-7.7-12.8 0-23.7 10.4-23.7 22.7v15.1c0 13.5-10.5 25.1-24 25.1h-30.4c-13.8 0-24.8-11.5-24.8-25.1v-15.2c0-12.3-10.6-22.7-23.4-22.7-6.4 0-12.2 2.7-16.6 7.4l-9.7 9.6c-4.4 4.5-10.9 7-17.5 7s-13-2.6-17.5-7l-22.3-22c-9.6-9.6-9.6-25.3 0-34.8l9.4-9.4c5-4.5 7.8-10.2 7.8-16.7 0-12.8-10.4-23.2-22.8-23.2h-15.2c-13.7 0.1-25.2-11.1-25.2-24.7v-30.4c0-13.5 11.5-24.8 25.2-24.8h15.2c12.4 0 22.8-10.4 22.8-23.2 0-6.4-2.8-12.3-7.8-16.8l-9.4-9.2c-9.6-9.6-9.6-25.2 0-34.8l22.3-22.2c4.4-4.5 10.9-7 17.5-7s13 2.6 17.5 7l9.7 9.6c4.2 4.7 10.1 7.4 16.5 7.4 12.8 0 23.4-10.4 23.4-22.7v-15.2c0-13.5 11-25.1 24.7-25.1h30.4c13.6 0 24.9 11.5 24.9 25.1v15.2c0 12.3 10.5 22.7 23.3 22.7 6.4 0 12.3-2.8 16.9-7.7l9.4-9.4c4.5-4.4 10.9-7 17.5-7s13 2.6 17.5 7l22.3 22.2c9.6 9.6 9.6 25.3 0 34.9l-9.8 9.6c-4.8 4.3-7.5 10.4-7.5 16.7 0 12.8 10.4 23.6 22.8 23.6h15.2c13.6 0 23.3 10.3 23.3 23.9v30.6c0 13.6-9.7 24.8-23.3 24.8zM432 224v-15.1c0-4.2-2.3-7.9-7.3-7.9h-15.2c-10.3 0-20.1-4.4-27.5-12-7.3-7.5-11.3-17.4-11.3-27.8 0-10.8 4.4-20.8 12.5-28.2l9.5-9.4c3.3-3.4 3.3-9 0-12.3l-22.3-22.2c-1.6-1.5-3.9-2.4-6.3-2.4s-4.8 0.9-6.3 2.4l-9.1 9.1c-7.7 8.1-17.8 12.6-28.5 12.6-10.4 0-20-4-27.5-11.2-7.6-7.4-11.6-17.1-11.6-27.5v-15.2c0-4.9-4.3-9.1-8.9-9.1h-30.4c-4.6 0-8.7 4.2-8.7 9.1v15.2c0 10.3-4.1 20.1-11.7 27.5-7.5 7.2-17.3 11.2-27.6 11.2-10.6 0-20.8-4.5-28.1-12.4l-9.3-9.3c-1.6-1.5-3.9-2.4-6.3-2.4s-4.8 0.8-6.1 2.2l-0.2 0.2-22.3 22.2c-3.3 3.3-3.3 8.8 0 12.2l9.1 9c8.2 7.6 12.7 17.7 12.7 28.5 0 10.4-4 19.9-11.3 27.4-7.4 7.6-17.2 11.5-27.5 11.5h-15.3c-5 0-9.2 4.3-9.2 8.8v30.5c0 4.5 4.2 8.8 9.2 8.8h15.2c10.3 0 20.1 3.9 27.5 11.5 7.3 7.5 11.3 17.2 11.3 27.5 0 10.8-4.5 20.9-12.7 28.4l-9.2 9.1c-2.2 2.2-2.5 4.7-2.5 6.1 0 1.3 0.3 3.9 2.5 6.1l22.2 22.1c1.6 1.5 3.9 2.4 6.3 2.4s4.8-0.8 6.1-2.2l9.6-9.6c7.4-8 17.4-12.4 28.1-12.4 10.4 0 20.1 4 27.6 11.2 7.6 7.4 11.8 17.1 11.8 27.5v15.2c0 4.9 4 9.1 8.5 9.1h30.5c4.5 0 8-4.2 8-9.1v-15.2c0-10.3 4.4-20.1 12-27.5 7.5-7.2 17.4-11.2 27.8-11.2 10.8 0 21 4.5 28.6 12.6l9.1 9.1c1.6 1.5 3.9 2.4 6.3 2.4s4.8-0.9 6.3-2.3l22.3-22.1c1.6-1.6 2.6-3.8 2.6-6.1s-0.9-4.5-2.5-6.1l-9.5-9.4c-8-7.4-12.5-17.4-12.5-28.2 0-10.4 4-19.9 11.3-27.4 7.4-7.6 17.2-11.5 27.5-11.5h15.2c5.4 0 7.4-5 7.5-9v-15z" />
<glyph unicode="&#xe652;" d="M424.5 263.5h-15.2c-12.4 0-22.8 10.7-22.8 23.4 0 6.4 2.7 12.2 7.5 16.5l9.8 9.6c9.7 9.6 9.7 25.3 0 34.9l-22.3 22.1c-4.4 4.4-10.9 7-17.5 7s-13-2.6-17.5-7l-9.4-9.4c-4.5-5-10.5-7.7-17-7.7-12.8 0-23.5 10.4-23.5 22.7v15.3c0 13.5-10.9 25.1-24.5 25.1h-30.4c-13.6 0-24.4-11.5-24.4-25.1v-15.2c0-12.3-10.7-22.7-23.5-22.7-6.4 0-12.3 2.7-16.6 7.4l-9.7 9.6c-4.4 4.5-10.9 7-17.5 7s-13-2.6-17.5-7l-22.5-22c-9.6-9.6-9.6-25.3 0-34.8l9.4-9.4c5-4.5 7.8-10.5 7.8-16.9 0-12.8-10.4-23.4-22.8-23.4h-15.2c-13.7 0-25.2-10.7-25.2-24.3v-30.4c0-13.5 11.5-24.3 25.2-24.3h15.2c12.4 0 22.8-10.7 22.8-23.4 0-6.4-2.8-12.4-7.8-16.9l-9.4-9.3c-9.6-9.6-9.6-25.3 0-34.8l22.3-22.2c4.4-4.5 10.9-7 17.5-7s13 2.6 17.5 7l9.7 9.6c4.2 4.7 10.2 7.4 16.6 7.4 12.8 0 23.5-10.4 23.5-22.7v-15.2c0-13.5 10.8-25.1 24.5-25.1h30.4c13.6 0 24.4 11.5 24.4 25.1v15.2c0 12.3 10.7 22.7 23.5 22.7 6.4 0 12.4-2.8 17-7.7l9.4-9.4c4.5-4.4 10.9-7 17.5-7s13 2.6 17.5 7l22.3 22.2c9.6 9.6 9.6 25.3 0 34.9l-9.8 9.6c-4.8 4.3-7.5 10.2-7.5 16.5 0 12.8 10.4 23.4 22.8 23.4h15.2c13.6 0 23.3 10.7 23.3 24.3v30.5c0.2 13.6-9.5 24.3-23.1 24.3zM336.8 224v0c0-44.1-35.7-80-80-80s-80 35.9-80 80v0 0c0 44.1 35.7 80 80 80s80-35.9 80-80v0z" />
<glyph unicode="&#xe653;" d="M465.4 233c-2.2 22-12.4 43-28.9 58.4-17.1 15.9-39.3 24.7-62.7 24.7-41.5 0-77.3-27.4-88.5-67-7 7-18.5 11.7-29.3 11.7s-22.3-4.7-29.3-11.7c-11.2 39.6-47 67-88.5 67-23.3 0-45.6-8.7-62.7-24.6-16.5-15.5-26.7-36.5-28.9-58.5h-14.6v-18h14.6c2.2-22 12.4-43 28.9-58.4 17.1-15.9 39.3-24.7 62.7-24.7 50.8 0 92.1 41.2 92.1 92 0 0.1 0 0.1 0 0.1v0c0 9.9 11.5 21.6 25.7 21.6s25.7-11.7 25.7-21.6v0c0 0 0 0 0-0.1 0-50.8 41.3-92 92.1-92 23.3 0 45.6 8.7 62.7 24.7 16.5 15.4 26.7 36.5 28.9 58.5h14.6v18h-14.6zM373.8 147c-42.5 0-77 34.6-77 77 0 42.5 34.6 77 77 77 42.5 0 77-34.6 77-77 0-42.5-34.5-77-77-77zM138.2 147c-42.5 0-77 34.6-77 77 0 42.5 34.6 77 77 77 42.5 0 77-34.6 77-77 0-42.5-34.5-77-77-77z" />
<glyph unicode="&#xe654;" d="M465.4 233c-2.2 22-12.4 43-28.9 58.4-17.1 15.9-39.3 24.7-62.7 24.7-41.5 0-77.3-27.4-88.5-67-7 7-18.5 11.7-29.3 11.7s-22.3-4.7-29.3-11.7c-11.2 39.6-47 67-88.5 67-23.3 0-45.6-8.7-62.7-24.6-16.5-15.5-26.7-36.5-28.9-58.5h-14.6v-18h14.6c2.2-22 12.4-43 28.9-58.4 17.1-15.9 39.3-24.7 62.7-24.7 50.8 0 92.1 41.2 92.1 92 0 0.1 0 0.1 0 0.1v0c0 9.9 11.5 21.6 25.7 21.6s25.7-11.7 25.7-21.6v0c0 0 0 0 0-0.1 0-50.8 41.3-92 92.1-92 23.3 0 45.6 8.7 62.7 24.7 16.5 15.4 26.7 36.5 28.9 58.5h14.6v18h-14.6z" />
<glyph unicode="&#xe655;" d="M340.8 381.6c50.7 0 91.9-41.3 91.9-92.3 0-26.2-10.9-49.8-28.3-66.6l-148.4-149.8-151 152.5c-15.8 16.6-25.6 39.1-25.6 63.9 0 51 41.1 92.3 91.9 92.3 38.2 0 70.9-23.4 84.8-56.8 13.7 33.3 46.5 56.8 84.7 56.8zM340.8 397c-33.8 0-64.8-15.8-84.8-41.8-20 26-51 41.8-84.8 41.8-59.1 0-107.2-48.3-107.2-107.7 0-27.9 10.6-54.4 29.9-74.6l162.1-163.7 159.2 160.8c21 20.3 32.8 47.9 32.8 77.5 0 59.4-48.1 107.7-107.2 107.7v0z" />
<glyph unicode="&#xe656;" d="M340.8 397c-33.8 0-64.8-15.8-84.8-41.8-20 26-51 41.8-84.8 41.8-59.1 0-107.2-48.3-107.2-107.7 0-27.9 10.6-54.4 29.9-74.6l162.1-163.7 159.2 160.8c21 20.3 32.8 47.9 32.8 77.5 0 59.4-48.1 107.7-107.2 107.7v0z" />
<glyph unicode="&#xe657;" d="M260.3 114c-9.4 0-17 7.5-17 16.9 0 9.3 7.6 16.8 17 16.8s17-7.5 17-16.8c0-9.4-7.6-16.9-17-16.9zM294.1 229.3c-22.8-22.5-22.2-27.4-23.3-53.3h-19c1.1 28.5 7.5 43.7 30.1 64.5 11 10.3 19.4 22.7 19.4 38.1 0 23.6-19.4 39.9-42.6 39.9-32.4 0-48.5-16.4-47.9-46.4h-18.8c0.3 42 24.4 62.1 67.6 62.1 33 0 60.4-20.4 60.4-54.6 0-21.9-10.7-36.2-25.9-50.3z" />
<glyph unicode="&#xe658;" d="M256 432c-114.9 0-208-93.1-208-208s93.1-208 208-208c114.9 0 208 93.1 208 208s-93.1 208-208 208zM256 33.3c-105.1 0-190.7 85.5-190.7 190.7 0 105.1 85.5 190.7 190.7 190.7 105.1 0 190.7-85.5 190.7-190.7 0-105.1-85.6-190.7-190.7-190.7zM259.6 334c-43.2 0-67.3-20.3-67.6-62.2h18.8c-0.6 30.4 15.5 46.5 47.9 46.5 23.2 0 42.6-16.2 42.6-39.8 0-15.3-8.3-27.7-19.4-38.1-22.6-20.8-29-36-30.1-64.5h19c1.1 25.8 0.5 30.7 23.3 53.3 15.2 14.2 25.9 28.3 25.9 50.2 0 34.2-27.4 54.6-60.4 54.6zM260.3 147.7c-9.4 0-17-7.5-17-16.8s7.6-16.9 17-16.9c9.4 0 17 7.5 17 16.9 0 9.3-7.6 16.8-17 16.8z" />
<glyph unicode="&#xe659;" d="M256 432c-114.9 0-208-93.1-208-208s93.1-208 208-208c114.9 0 208 93.1 208 208s-93.1 208-208 208zM260.3 114c-9.4 0-17 7.5-17 16.9 0 9.3 7.6 16.8 17 16.8s17-7.5 17-16.8c0-9.4-7.6-16.9-17-16.9zM294.1 229.3c-22.8-22.5-22.2-27.4-23.3-53.3h-19c1.1 28.5 7.5 43.7 30.1 64.5 11 10.3 19.4 22.7 19.4 38.1 0 23.6-19.4 39.9-42.6 39.9-32.4 0-48.5-16.4-47.9-46.4h-18.8c0.3 42 24.4 62.1 67.6 62.1 33 0 60.4-20.4 60.4-54.6 0-21.9-10.7-36.2-25.9-50.3z" />
<glyph unicode="&#xe65a;" d="M256 368l-160-128v-208h112v128h96v-128h112v208l-160 128zM400 48h-80v128h-128v-128h-80v184.31l144 115.2 144-115.2v-184.31zM256 416l-96-76.8v44.8h-64v-95.999l-32-25.6v-20.491l192 153.6 192-153.6v20.491l-192 153.599zM144 326.4l-32-25.6v67.2h32v-41.6z" />
<glyph unicode="&#xe65b;" d="M256 368l-160-128v-208h112v128h96v-128h112v208l-160 128zM256 416l-96-76.8v44.8h-64v-95.999l-32-25.6v-20.491l192 153.6 192-153.6v20.491l-192 153.599z" />
<glyph unicode="&#xe65c;" d="M448 32h-384v384h384v-384zM80 48h352v352h-352v-352zM72 144h368v-16h-368v16zM216 272h-48c-17.648 0-32 14.352-32 32 0 18.584 16.176 33.616 34.816 31.872 6.584 19.032 24.44 32.128 45.184 32.128 26.472 0 48-21.528 48-48s-21.528-48-48-48v0zM168 320c-8.824 0-16-7.176-16-16s7.176-16 16-16h48c17.648 0 32 14.352 32 32s-14.352 32-32 32c-15.728 0-28.968-11.328-31.464-26.936l-1.568-9.776-9.224 3.584c-1.928 0.752-3.856 1.128-5.744 1.128v0zM408.84 132.424l-56.584 113.168c-3.208 6.416-9.664 10.408-16.84 10.408-6.672 0-12.904-3.584-16.272-9.344l-48.232-82.688c-1.392-2.384-3.912-3.872-6.664-3.96-2.72-0.224-5.36 1.256-6.896 3.544-0.304 0.448-30.168 44.448-65.352 44.448-28.368 0-56.232-54.12-64.568-74.976l-14.856 5.944c3.48 8.704 35.28 85.032 79.424 85.032 32.12 0 58.688-26.624 71.12-41.632l42.2 72.352c6.216 10.664 17.752 17.28 30.088 17.28 13.28 0 25.216-7.376 31.16-19.256l56.584-113.168-14.312-7.152z" />
<glyph unicode="&#xe65d;" d="M368.5 352h-225l-63.5-96v-160h352v160l-63.5 96zM413.4 256h-45.4v68l45.4-68zM160 336h192v-80h-48c0-26.5-21.5-48-48-48s-48 21.5-48 48h-48v80zM144 324v-68h-45.4l45.4 68zM416 112h-320v128h98c7.1-27.6 32.2-48 62-48s54.9 20.4 62 48h98v-128z" />
<glyph unicode="&#xe65e;" d="M256 192c-29.8 0-54.9 20.4-62 48h-114v-144h352v144h-114c-7.1-27.6-32.2-48-62-48zM144 256h64c0-26.5 21.5-48 48-48s48 21.5 48 48h128l-63.5 96h-0.5v-80h-16v80h-192v-80h-16v80h-0.5l-63.5-96h64z" />
<glyph unicode="&#xe65f;" d="M423.3 280.6c-15.9 15.1-37.1 23.4-59.7 23.4s-43.8-8.3-59.7-23.4l-36.2-34.3 11.7-11.2 36.2 34.4c12.8 12.1 29.8 18.8 47.9 18.8s35.1-6.7 47.9-18.8c26.4-25.1 26.4-65.9 0-90.9-12.8-12.1-29.8-18.8-47.9-18.8s-35.1 6.7-47.9 18.8l-107.6 102c-16 15.1-37.2 23.4-59.7 23.4-22.6 0-43.8-8.3-59.7-23.4-32.9-31.2-32.9-81.9 0-113.1 15.9-15.1 37.1-23.4 59.7-23.4s43.8 8.3 59.7 23.4l36.1 34.3-11.7 11.1-36.2-34.3c-12.8-12.1-29.8-18.8-47.9-18.8s-35.1 6.7-47.9 18.8c-26.4 25.1-26.4 65.9 0 90.9 12.8 12.1 29.8 18.8 47.9 18.8s35.1-6.7 47.9-18.8l107.6-102c16-15.1 37.2-23.4 59.7-23.4 22.6 0 43.8 8.3 59.7 23.4 33 31.1 33 81.9 0.1 113.1z" />
<glyph unicode="&#xe660;" d="M421.9 280.7c-16.7 15-39 23.3-62.6 23.3s-45.9-8.3-62.6-23.3l-31.6-28.5 22.4-20.2 31.1 28c10.8 9.7 25.3 15.1 40.7 15.1s29.9-5.4 40.7-15.1c10.7-9.6 16.6-22.4 16.6-36.1 0-13.6-5.9-26.4-16.6-36-10.8-9.7-25.3-15.1-40.7-15.1s-29.9 5.4-40.7 15.1l-103.3 92.7c-16.7 15-39 23.3-62.6 23.3s-45.9-8.3-62.6-23.3c-16.8-15-26.1-35.1-26.1-56.6s9.3-41.6 26.1-56.7c16.7-15 39-23.3 62.6-23.3s45.9 8.3 62.6 23.3l31.6 28.4-22.4 20.2-31-27.9c-10.8-9.7-25.3-15.1-40.7-15.1s-29.9 5.4-40.7 15.1c-10.7 9.6-16.6 22.4-16.6 36s5.9 26.4 16.6 36.1c10.8 9.7 25.3 15.1 40.7 15.1s29.9-5.4 40.7-15.1l103.3-92.7c16.7-15 39-23.3 62.6-23.3s45.9 8.3 62.6 23.3c16.8 15.1 26.1 35.2 26.1 56.7-0.1 21.4-9.4 41.5-26.2 56.6z" />
<glyph unicode="&#xe661;" d="M271.5 308c0-11.046-8.954-20-20-20s-20 8.954-20 20c0 11.046 8.954 20 20 20s20-8.954 20-20zM272 136v128h-48v-8h16v-120h-16v-8h64v8z" />
<glyph unicode="&#xe662;" d="M271.5 308c0-11.046-8.954-20-20-20s-20 8.954-20 20c0 11.046 8.954 20 20 20s20-8.954 20-20zM272 136v128h-48v-8h16v-120h-16v-8h64v8zM256 432c-114.9 0-208-93.1-208-208s93.1-208 208-208c114.9 0 208 93.1 208 208s-93.1 208-208 208zM256 33.3c-105.1 0-190.7 85.5-190.7 190.7 0 105.1 85.5 190.7 190.7 190.7 105.1 0 190.7-85.5 190.7-190.7 0-105.1-85.6-190.7-190.7-190.7z" />
<glyph unicode="&#xe663;" d="M256 432c-114.9 0-208-93.1-208-208s93.1-208 208-208c114.9 0 208 93.1 208 208s-93.1 208-208 208zM251.5 328c11.1 0 20-9 20-20s-9-20-20-20c-11 0-20 9-20 20s8.9 20 20 20zM288 128h-64v8h16v120h-16v8h48v-128h16v-8z" />
<glyph unicode="&#xe664;" d="M112 407.2v-366.4c0-4.9 3.9-8.8 8.8-8.8h270.4c4.9 0 8.8 3.9 8.8 8.8v366.4c0 4.9-3.9 8.8-8.8 8.8h-270.4c-4.9 0-8.8-3.9-8.8-8.8zM256 42.4c-7.5 0-13.6 6-13.6 13.5s6.1 13.6 13.6 13.6c7.4 0 13.5-6.1 13.5-13.6 0.1-7.5-6-13.5-13.5-13.5zM144 361.4c0 3.5 2.7 6.6 6 6.6h211.2c3.4 0 6.8-3.1 6.8-6.6v-275.2c0-3.5-3.4-6.3-6.8-6.3h-211.2c-3.4 0-6 2.8-6 6.3v275.2z" />
<glyph unicode="&#xe665;" d="M328.2 416h-144.4c-13.1 0-23.8-10.7-23.8-23.9v-336.3c0-13.1 10.7-23.8 23.8-23.8h144.3c13.1 0 23.8 10.7 23.8 23.8v336.3c0.1 13.2-10.6 23.9-23.7 23.9zM240 380.1c0 2.1 1.7 3.9 3.9 3.9h24.3c2.1 0 3.9-1.7 3.9-3.9v-0.3c0-2.1-1.7-3.9-3.9-3.9h-24.3c-2.1 0-3.9 1.7-3.9 3.9v0.3zM228 384c2.2 0 4-1.8 4-4s-1.8-4-4-4-4 1.8-4 4c0 2.2 1.8 4 4 4zM256 47.9c-8.9 0-16.1 7.2-16.1 16.1s7.2 16.1 16.1 16.1c8.9 0 16.1-7.2 16.1-16.1s-7.3-16.1-16.1-16.1zM336 96h-160v256h160v-256z" />
<glyph unicode="&#xe666;" d="M394.6 138.8c-29.5 0-53.4-23.9-53.4-53.4s23.9-53.4 53.4-53.4c29.5 0 53.4 23.9 53.4 53.4s-23.9 53.4-53.4 53.4zM394.6 48c-20.6 0-37.4 16.8-37.4 37.4s16.8 37.4 37.4 37.4 37.4-16.8 37.4-37.4c0-20.6-16.8-37.4-37.4-37.4zM256 138.8c-29.5 0-53.4-23.9-53.4-53.4s23.9-53.4 53.4-53.4c29.5 0 53.4 23.9 53.4 53.4s-23.9 53.4-53.4 53.4zM256 48c-20.6 0-37.4 16.8-37.4 37.4s16.8 37.4 37.4 37.4 37.4-16.8 37.4-37.4c0-20.6-16.8-37.4-37.4-37.4zM117.4 138.8c-29.5 0-53.4-23.9-53.4-53.4s23.9-53.4 53.4-53.4c29.5 0 53.4 23.9 53.4 53.4s-23.9 53.4-53.4 53.4zM117.4 48c-20.6 0-37.4 16.8-37.4 37.4s16.8 37.4 37.4 37.4 37.4-16.8 37.4-37.4c0-20.6-16.7-37.4-37.4-37.4zM394.6 277.4c-29.5 0-53.4-23.9-53.4-53.4s23.9-53.4 53.4-53.4c29.5 0 53.4 23.9 53.4 53.4s-23.9 53.4-53.4 53.4zM394.6 186.6c-20.6 0-37.4 16.8-37.4 37.4s16.8 37.4 37.4 37.4 37.4-16.8 37.4-37.4c0-20.6-16.8-37.4-37.4-37.4zM256 277.4c-29.5 0-53.4-23.9-53.4-53.4s23.9-53.4 53.4-53.4c29.5 0 53.4 23.9 53.4 53.4s-23.9 53.4-53.4 53.4zM256 186.6c-20.6 0-37.4 16.8-37.4 37.4s16.8 37.4 37.4 37.4 37.4-16.8 37.4-37.4c0-20.6-16.8-37.4-37.4-37.4zM117.4 277.4c-29.5 0-53.4-23.9-53.4-53.4s23.9-53.4 53.4-53.4c29.5 0 53.4 23.9 53.4 53.4s-23.9 53.4-53.4 53.4zM117.4 186.6c-20.6 0-37.4 16.8-37.4 37.4s16.8 37.4 37.4 37.4 37.4-16.8 37.4-37.4c0-20.6-16.7-37.4-37.4-37.4zM394.6 309.2c29.5 0 53.4 23.9 53.4 53.4s-23.9 53.4-53.4 53.4c-29.5 0-53.4-23.9-53.4-53.4s23.9-53.4 53.4-53.4zM394.6 400c20.6 0 37.4-16.8 37.4-37.4s-16.8-37.4-37.4-37.4-37.4 16.8-37.4 37.4c0 20.6 16.7 37.4 37.4 37.4zM256 416c-29.5 0-53.4-23.9-53.4-53.4s23.9-53.4 53.4-53.4c29.5 0 53.4 23.9 53.4 53.4s-23.9 53.4-53.4 53.4zM256 325.2c-20.6 0-37.4 16.8-37.4 37.4s16.8 37.4 37.4 37.4 37.4-16.8 37.4-37.4c0-20.6-16.8-37.4-37.4-37.4zM117.4 416c-29.5 0-53.4-23.9-53.4-53.4s23.9-53.4 53.4-53.4c29.5 0 53.4 23.9 53.4 53.4s-23.9 53.4-53.4 53.4zM117.4 325.2c-20.6 0-37.4 16.8-37.4 37.4s16.8 37.4 37.4 37.4 37.4-16.8 37.4-37.4c0-20.6-16.7-37.4-37.4-37.4z" />
<glyph unicode="&#xe667;" d="M394.6 138.8c-29.5 0-53.4-23.9-53.4-53.4s23.9-53.4 53.4-53.4c29.5 0 53.4 23.9 53.4 53.4s-23.9 53.4-53.4 53.4zM256 138.8c-29.5 0-53.4-23.9-53.4-53.4s23.9-53.4 53.4-53.4c29.5 0 53.4 23.9 53.4 53.4s-23.9 53.4-53.4 53.4zM117.4 138.8c-29.5 0-53.4-23.9-53.4-53.4s23.9-53.4 53.4-53.4c29.5 0 53.4 23.9 53.4 53.4s-23.9 53.4-53.4 53.4zM394.6 277.4c-29.5 0-53.4-23.9-53.4-53.4s23.9-53.4 53.4-53.4c29.5 0 53.4 23.9 53.4 53.4s-23.9 53.4-53.4 53.4zM256 277.4c-29.5 0-53.4-23.9-53.4-53.4s23.9-53.4 53.4-53.4c29.5 0 53.4 23.9 53.4 53.4s-23.9 53.4-53.4 53.4zM117.4 277.4c-29.5 0-53.4-23.9-53.4-53.4s23.9-53.4 53.4-53.4c29.5 0 53.4 23.9 53.4 53.4s-23.9 53.4-53.4 53.4zM394.6 309.2c29.5 0 53.4 23.9 53.4 53.4s-23.9 53.4-53.4 53.4c-29.5 0-53.4-23.9-53.4-53.4s23.9-53.4 53.4-53.4zM256 416c-29.5 0-53.4-23.9-53.4-53.4s23.9-53.4 53.4-53.4c29.5 0 53.4 23.9 53.4 53.4s-23.9 53.4-53.4 53.4zM117.4 416c-29.5 0-53.4-23.9-53.4-53.4s23.9-53.4 53.4-53.4c29.5 0 53.4 23.9 53.4 53.4s-23.9 53.4-53.4 53.4z" />
<glyph unicode="&#xe668;" d="M400 307.1c0 77.8-66.1 140.9-144 140.9s-144-63.1-144-141c0-31 13.2-59 30.2-83h-0.3c10.9-15 21.4-27.7 31.5-45 22-37.8 18.6-74.3 18.7-81.6v-1.4h128v1.4c0 8.9-3.6 43.8 18.4 81.6 10.1 17.3 20.6 30 31.5 45h-0.1c16.9 24 30.1 52 30.1 83.1zM351 225.6c-0.6-0.8-1.1-1.5-1.7-2.3-8.1-10.9-16.5-22.2-24.7-36.1-17.3-29.7-20.4-57.9-20.8-75.1h-15.8v111.9l32 64h-16.6l-31.4-64v-112h-32v112l-31.4 64h-16.6l32-64v-112h-15.9c-0.5 17.2-3.9 45.7-20.9 75-4.5 7.7-9.1 15-13.7 21h0.2l-18.6 25.6c-15.8 21.6-27.1 47.1-27.1 73.6 0 33.4 16 64.8 39.6 88.4s55 36.7 88.4 36.7c33.4 0 64.8-13.1 88.4-36.7s39.6-55 39.6-88.4c0-26.5-11.3-51.9-27.1-73.5l-5.9-8.1zM224 16h64v-16h-64v16zM208 48h96v-16h-96v16zM208 80h96v-16h-96v16z" />
<glyph unicode="&#xe669;" d="M400 307.1c0 77.8-66.1 140.9-144 140.9s-144-63.1-144-141c0-31 13.2-59 30.2-83h-0.3c10.9-15 21.4-27.7 31.5-45 22-37.8 18.6-74.3 18.7-81.6v-1.4h32v128l-32 64h16.6l31.4-64v-128h32v128l31.4 64h16.5l-32-64v-128h32v1.4c0 8.9-3.6 43.8 18.4 81.6 10.1 17.3 20.6 30 31.5 45h-0.1c17 24 30.2 52 30.2 83.1zM224 16h64v-16h-64v16zM208 48h96v-16h-96v16zM208 80h96v-16h-96v16z" />
<glyph unicode="&#xe66a;" d="M327.829 283.212l-10.296 10.296-131.040-131.040 10.296-10.296 131.040 131.040zM262.796 259.254c-9.959 22.393-5.832 49.577 12.507 67.908 2.606 2.613 41.168 41.197 44.976 44.983 11.517 11.517 26.82 17.858 43.097 17.858 16.271 0 31.574-6.341 43.083-17.851 11.517-11.517 17.858-26.827 17.858-43.105s-6.341-31.574-17.851-43.083l-44.99-44.99c-11.51-11.51-26.812-17.844-43.091-17.844-8.707 0-17.123 1.863-24.832 5.322l-10.877-10.877c10.854-5.846 23.041-8.954 35.709-8.954 20.159 0 39.101 7.848 53.348 22.095l44.99 44.991c14.254 14.247 22.102 33.197 22.102 53.348-0.007 20.159-7.855 39.108-22.11 53.363-14.247 14.247-33.197 22.095-53.341 22.095h-0.007c-20.159 0-39.094-7.848-53.334-22.087-3.8-3.786-42.392-42.392-44.998-45.005-24.067-24.060-28.414-60.467-13.104-89.027l10.862 10.862zM251.526 186.425c9.959-22.394 5.832-49.577-12.5-67.908-2.613-2.613-41.175-41.19-44.983-44.99-11.51-11.51-26.812-17.851-43.090-17.851-16.271 0.007-31.573 6.341-43.083 17.851-11.517 11.517-17.858 26.82-17.858 43.098s6.341 31.581 17.85 43.091l44.991 44.99c11.51 11.51 26.812 17.844 43.083 17.844 8.714 0 17.123-1.863 24.84-5.322l10.876 10.876c-10.855 5.846-23.041 8.954-35.715 8.954-20.151 0-39.101-7.848-53.348-22.095l-44.99-44.99c-14.254-14.247-22.102-33.197-22.102-53.348s7.855-39.101 22.109-53.363c14.247-14.247 33.197-22.095 53.34-22.095h0.007c20.151 0 39.101 7.848 53.333 22.095 3.8 3.786 42.392 42.384 44.998 45.005 24.067 24.060 28.414 60.467 13.096 89.027l-10.855-10.869z" />
<glyph unicode="&#xe66b;" d="M256 448c-74 0-134.2-58.7-134.2-132.7 0-16.4 3.5-34.3 9.8-50.4h-0.1l0.6-1.2c0.5-1.1 1-2.2 1.5-3.3l122.4-260.4 122.4 260.3c0.5 1.1 1.1 2.2 1.6 3.4l0.4 1.1c6.5 16.1 9.8 33.1 9.8 50.3 0 74.2-60.2 132.9-134.2 132.9zM365.1 270.6l-0.2-0.5c-0.3-0.6-0.6-1.3-0.9-1.9l-1-2.1-107-227.4-108 229.4c-0.3 0.6-0.6 1.2-0.8 1.8-5.9 14.5-9.1 30.6-9.1 45.4 0 65 52.9 116.5 118 116.5s118-51.4 118-116.5c-0.1-15.2-3.1-30.2-9-44.7zM256 384c-35.3 0-64-28.7-64-64s28.7-64 64-64 64 28.7 64 64-28.7 64-64 64zM256 273.1c-25.9 0-46.9 21-46.9 46.9s21 46.9 46.9 46.9c25.9 0 46.9-21 46.9-46.9s-21-46.9-46.9-46.9z" />
<glyph unicode="&#xe66c;" d="M256 448c-74 0-134.2-58.7-134.2-132.7 0-16.4 3.5-34.3 9.8-50.4h-0.1l0.6-1.2c0.5-1.1 1-2.2 1.5-3.3l122.4-260.4 122.4 260.3c0.5 1.1 1.1 2.2 1.6 3.4l0.4 1.1c6.5 16.1 9.8 33.1 9.8 50.3 0 74.2-60.2 132.9-134.2 132.9zM256 273.1c-25.9 0-46.9 21-46.9 46.9s21 46.9 46.9 46.9c25.9 0 46.9-21 46.9-46.9s-21-46.9-46.9-46.9z" />
<glyph unicode="&#xe66d;" d="M360 256v72c0 57.4-46.6 104-104 104-57.5 0-104-46.6-104-104v-72h-56v-240h320v240h-56zM168 328c0 48.5 39.5 88 88 88s88-39.5 88-88v-72h-176v72zM400 32h-288v208h288v-208zM288 160c0 17.7-14.3 32-32 32s-32-14.3-32-32c0-14.9 10.2-27.4 24-31v-41c0-4.4 3.6-8 8-8s8 3.6 8 8v41c13.8 3.6 24 16.1 24 31zM256 144c-8.8 0-16 7.2-16 16s7.2 16 16 16 16-7.2 16-16-7.2-16-16-16z" />
<glyph unicode="&#xe66e;" d="M256 176c-8.8 0-16-7.2-16-16s7.2-16 16-16 16 7.2 16 16-7.2 16-16 16zM360 256v72c0 57.4-46.6 104-104 104-57.5 0-104-46.6-104-104v-72h-56v-240h320v240h-56zM264 129v-41c0-4.4-3.6-8-8-8s-8 3.6-8 8v41c-13.8 3.6-24 16.1-24 31 0 17.7 14.3 32 32 32s32-14.3 32-32c0-14.9-10.2-27.4-24-31zM344 256h-176v72c0 48.5 39.5 88 88 88s88-39.5 88-88v-72z" />
<glyph unicode="&#xe66f;" d="M256 368h176v-288h-176v-16h192v320h-192v-16zM252.3 161.1l11.6-11.6 74.5 74.5-74.5 74.5-11.6-11.6 54.7-54.7h-243v-16.4h243l-54.7-54.7z" />
<glyph unicode="&#xe670;" d="M256 368h-176v-288h176v-16h-192v320h192v-16zM361.9 161.1l11.6-11.6 74.5 74.5-74.5 74.5-11.6-11.6 54.7-54.7h-243v-16.4h243l-54.7-54.7z" />
<glyph unicode="&#xe671;" d="M256 432c-75.033 0-144.531-40.658-181.373-106.107l-1.963-3.485 20.915-11.771 1.962 3.485c32.597 57.905 94.080 93.878 160.459 93.878 101.458 0 184-82.542 184-184 0-12.509-1.262-25.007-3.749-37.147l-0.803-3.918 23.511-4.819 0.804 3.919c2.811 13.721 4.237 27.84 4.237 41.965 0 114.691-93.309 208-208 208zM416.459 133.881c-32.597-57.908-94.080-93.881-160.459-93.881-101.458 0-184 82.542-184 184 0 12.512 1.262 25.011 3.75 37.15l0.803 3.918-23.511 4.819-0.804-3.918c-2.812-13.719-4.238-27.839-4.238-41.969 0-114.691 93.309-208 208-208 75.033 0 144.531 40.658 181.373 106.109l1.963 3.485-20.915 11.771-1.962-3.484zM384 224l64-64 64 64zM0 224l64 64 64-64z" />
<glyph unicode="&#xe672;" d="M489.373 224l-41.373-41.373-42.373 41.373-10.814-10.813 53.187-53.187 52.687 52.687zM459.994 224.491c-0.002 0.577 0.013 1.157 0.007 1.733l-0.029 0.003c-1.201 111.462-92.23 201.773-203.972 201.773-73.59 0-141.753-39.878-177.888-104.071l13.943-7.848c33.304 59.165 96.125 95.919 163.945 95.919 103.273 0 187.355-83.708 187.985-186.836 0.038-6.882-0.281-13.83-1.017-20.831l15.912-1.674c0.755 7.168 1.105 14.286 1.111 21.341h0.009c0 0.164-0.006 0.327-0.006 0.491zM419.944 131.919c-33.303-59.165-96.124-95.919-163.944-95.919-103.475 0-187.688 84.032-187.993 187.437-0.015 6.686 0.31 13.434 1.024 20.23l-15.912 1.674c-0.754-7.168-1.104-14.286-1.108-21.341h-0.011c0-0.472 0.015-0.939 0.018-1.41 0.006-0.975-0.006-1.952 0.015-2.924l0.022 0.003c2.314-110.494 92.907-199.669 203.945-199.669 73.59 0 141.753 39.878 177.888 104.071l-13.944 7.848zM64 288l-52.687-52.687 11.314-11.313 41.373 41.373 41.373-41.373 11.314 11.313z" />
<glyph unicode="&#xe673;" d="M136.482 439.891l13.806 8.085 257.602-439.906-13.807-8.085-257.602 439.906zM256.2 126.6c12.3 0 23.8 2.9 34.2 8.2l-113.4 192.8v-117.6c0-46 35.4-83.4 79.2-83.4zM335 210v154.5c0 46-35.2 83.5-79 83.5-25.4 0-47.8-12.6-62.3-32.2l136.9-233.3c2.9 8.6 4.4 17.9 4.4 27.5zM384 208.3v79.7h-17v-79.7c0-21.5-6.2-41.6-17.1-58.5l9.9-17c15.3 21.2 24.2 47.3 24.2 75.5zM267 80.8c17 1.2 33 5.8 47.3 13l-9.4 16.1c-14.5-7-30.7-10.9-47.7-10.9-60.3 0-110.1 49-110.1 109.1v79.9h-19v-79.7c0-67.2 53-122.6 120-127.4v-62.9h-73v-18h161v18h-69v62.8z" />
<glyph unicode="&#xe674;" d="M256 448c-43.7 0-79-37.5-79-83.5v-154.5c0-46 35.3-83.5 79-83.5s79 37.5 79 83.5v154.5c0 46-35.3 83.5-79 83.5zM319 210c0-37.2-28.3-67.5-63-67.5s-63 30.3-63 67.5v154.5c0 37.2 28.3 67.5 63 67.5s63-30.3 63-67.5v-154.5zM367 288v-79.7c0-60.2-49.8-109.2-110-109.2s-110 49-110 109.2v79.7h-19v-79.7c0-67.2 53-122.6 120-127.5v-62.8h-73v-18h161v18h-69v62.8c66 4.9 117 60.3 117 127.5v79.7h-17z" />
<glyph unicode="&#xe675;" d="M256 126.5c43.7 0 79 37.5 79 83.5v154.5c0 46-35.3 83.5-79 83.5s-79-37.5-79-83.5v-154.5c0-46 35.3-83.5 79-83.5zM367 288v-79.7c0-60.2-49.8-109.2-110-109.2s-110 49-110 109.2v79.7h-19v-79.7c0-67.2 53-122.6 120-127.5v-62.8h-73v-18h161v18h-69v62.8c66 4.9 117 60.3 117 127.5v79.7h-17z" />
<glyph unicode="&#xe676;" d="M384 215h-256v17h256v-17z" />
<glyph unicode="&#xe677;" d="M256 432c-114.9 0-208-93.1-208-208s93.1-208 208-208c114.9 0 208 93.1 208 208s-93.1 208-208 208zM256 33.3c-105.1 0-190.7 85.5-190.7 190.7 0 105.1 85.5 190.7 190.7 190.7 105.1 0 190.7-85.5 190.7-190.7 0-105.1-85.6-190.7-190.7-190.7zM128 232h256v-17h-256v17z" />
<glyph unicode="&#xe678;" d="M256 432c-114.9 0-208-93.1-208-208s93.1-208 208-208c114.9 0 208 93.1 208 208s-93.1 208-208 208zM384 215h-256v17h256v-17z" />
<glyph unicode="&#xe679;" d="M496 96v288h-480v-288h175v-16h-64v-16h257v16h-64v16h176zM32 368h448v-256h-448v256z" />
<glyph unicode="&#xe67a;" d="M496 96v288h-480v-288h175v-16h-64v-16h257v16h-64v16h176zM32 368h448v-256h-448v256zM48 352h416v-224h-416v224z" />
<glyph unicode="&#xe67b;" d="M256 242c9.9 0 18-8.1 18-18s-8.1-18-18-18-18 8.1-18 18 8.1 18 18 18zM256 256c-17.7 0-32-14.3-32-32s14.3-32 32-32c17.7 0 32 14.3 32 32s-14.3 32-32 32v0zM128.4 242c9.9 0 18-8.1 18-18s-8.1-18-18-18c-9.9 0-18 8.1-18 18s8.1 18 18 18zM128.4 256c-17.7 0-32-14.3-32-32s14.3-32 32-32c17.7 0 32 14.3 32 32s-14.4 32-32 32v0zM384 242c9.9 0 18-8.1 18-18s-8.1-18-18-18-18 8.1-18 18 8.1 18 18 18zM384 256c-17.7 0-32-14.3-32-32s14.3-32 32-32 32 14.3 32 32-14.3 32-32 32v0z" />
<glyph unicode="&#xe67c;" d="M256 256c-17.7 0-32-14.3-32-32s14.3-32 32-32c17.7 0 32 14.3 32 32s-14.3 32-32 32v0zM128.4 256c-17.7 0-32-14.3-32-32s14.3-32 32-32c17.7 0 32 14.3 32 32s-14.4 32-32 32v0zM384 256c-17.7 0-32-14.3-32-32s14.3-32 32-32 32 14.3 32 32-14.3 32-32 32v0z" />
<glyph unicode="&#xe67d;" d="M96 239h320v-32h-320v32zM96 335h320v-32h-320v32zM96 143h320v-32h-320v32z" />
<glyph unicode="&#xe67e;" d="M256 415.5c51.1 0 99.2-19.9 135.4-56.1s56.1-84.2 56.1-135.4-19.9-99.2-56.1-135.4-84.2-56.1-135.4-56.1-99.2 19.9-135.4 56.1c-36.1 36.2-56.1 84.3-56.1 135.4s19.9 99.2 56.1 135.4c36.2 36.1 84.3 56.1 135.4 56.1zM256 432c-114.9 0-208-93.1-208-208s93.1-208 208-208c114.9 0 208 93.1 208 208s-93.1 208-208 208v0zM352 320l-223.7-96h127.7v-128z" />
<glyph unicode="&#xe67f;" d="M256 432c-114.9 0-208-93.1-208-208s93.1-208 208-208c114.9 0 208 93.1 208 208s-93.1 208-208 208zM256 96v128h-127.7l223.7 96-96-224z" />
<glyph unicode="&#xe680;" d="M112 416v-336h16v320h304v-337.143c0-8.205-6.652-14.857-14.857-14.857h-322.286c-8.205 0-14.857 6.652-14.857 14.857v289.143h16v16h-32v-305.143c0-17.014 13.843-30.857 30.857-30.857h322.285c17.015 0 30.858 13.843 30.858 30.857v353.143h-336zM160 368h128v-16h-128v16zM160 288h240v-16h-240v16zM160 208h192v-16h-192v16zM160 128h240v-16h-240v16z" />
<glyph unicode="&#xe681;" d="M112 416v-336h-16v288h-32v-305.143c0-17.014 13.843-30.857 30.857-30.857h322.285c17.015 0 30.858 13.843 30.858 30.857v353.143h-336zM160 368h128v-16h-128v16zM160 208h192v-16h-192v16zM400 112h-240v16h240v-16zM400 272h-240v16h240v-16z" />
<glyph unicode="&#xe682;" d="M177.226 190.137c-10.119-10.137-10.119-26.558 0.001-36.688 10.118-10.134 26.519-10.134 36.639 0.002l130.902 131.027 12.257-12.268-130.899-131.025c-16.887-16.914-44.27-16.914-61.156-0.002-16.887 16.903-16.887 44.308-0.002 61.219l6.13-6.132-6.128 6.135 173.687 173.846c23.632 23.665 61.976 23.668 85.623 0 23.628-23.661 23.628-62.031-0.002-85.684l-213.434-213.631c-30.381-30.411-79.66-30.411-110.050-0.001s-30.392 79.755-0.010 110.167l170.638 170.793 12.256-12.269-170.638-170.793c-23.613-23.636-23.611-61.995 0.007-85.628 23.621-23.636 61.927-23.636 85.54-0.001l213.434 213.631c16.861 16.877 16.861 44.264 0 61.148-16.875 16.891-44.241 16.888-61.107 0l-173.688-173.846z" />
<glyph unicode="&#xe683;" d="M324.6 325.1c-6.3 0.1-11.4-5.1-11.4-11.6l-0.2-194.8c-0.1-43.8-29.7-63.4-57.2-63.2-27.5 0.3-57.1 20.4-57 64.1 0 33.5 0.2 167.7 0.3 234.8 0 15.4 6 27.4 16.8 33.7 10.6 6.2 24.4 6.1 35-0.3 10.8-6.5 16.7-18.6 16.7-34l-0.3-224.5c0-7.3-1.7-13.3-4.7-17.1-1.9-2.4-4.4-3.8-6.9-3.8-5.6 0.1-11.4 7.3-11.3 20.8 0 0 0.2 166.3 0.3 172.7 0 6.5-5.1 11.8-11.4 11.8s-11.4-5.2-11.4-11.7l-0.3-172.7c0-29 17.2-44.3 34.2-44.5 9.4-0.1 18.3 4.4 24.6 12.4s9.7 19 9.7 31.8l0.3 224.5c0 23.8-10.2 43.6-28.1 54.3-17.5 10.6-40.3 10.8-57.9 0.5-17.9-10.5-28.2-30.1-28.3-53.9-0.1-67-0.2-201.2-0.3-234.8-0.1-57.2 40.1-87.4 79.8-87.8 20.5-0.2 41.1 7.7 56.3 23.1 14.2 14.5 23.7 35.7 23.7 63.4l0.1 194.9c0.3 6.6-4.8 11.9-11.1 11.9z" />
<glyph unicode="&#xe684;" d="M158.881 111.526l-15.357 15.357 190.392 190.392-11.3 11.4-198.992-199.092 2.829-35.128 35.028-2.829 199.192 199.092-11.4 11.3-190.392-190.492zM384.572 334.418l-18.157 18.157c-2.7 2.4-6.2 3.8-10 3.8s-7.3-1.5-9.9-3.8l-12.1-12.2 11.3-11.4 26.657-26.657 12.2 12.2c2.4 2.6 3.8 6.1 3.8 9.9 0.1 3.8-2.107 8.007-4.507 10.707l0.707-0.707z" />
<glyph unicode="&#xe685;" d="M256 368v0 0zM349.2 145.2c-13.5 4.7-28.1 5-41.6 9.7-4.1 1.4-12.2 3.1-13.9 7.8-1.6 4.6-1.6 10-1.9 14.8-0.2 3.8-0.3 7.6-0.3 11.4 0 2.5 6.4 7.8 7.8 10.1 5.4 9 5.9 21.1 6.9 31.3 8.7-2.4 9.8 13.7 11.3 18.6 1.1 3.4 7.8 26.8-2.6 23.6 2.5 4.4 3.5 9.8 4.2 14.7 2 12.8 2.8 26.8-1.1 39.3-8.1 26-33 40.6-59.3 41.4-26.7 0.9-53.5-11.9-63.5-37.8-4.8-12.6-4.4-26.3-2.8-39.5 0.7-6 1.7-12.7 4.7-18.1-9.7 2.9-4.5-17.7-3.4-21.3 1.6-5.1 3-23.4 12.1-20.9 0.8-8.1 1.7-16.4 3.9-24.3 1.5-5.3 4.6-9.8 8.2-13.9 1.8-2 2.7-2.2 2.6-4.8-0.1-7.8 0.1-16.2-1.9-23.8s-18.7-10.8-25.4-12.2c-18-3.7-34.6-5.4-49.6-16.6-17.5-12.9-26.6-33-26.6-54.7 83.3 0 166.6 0 249.9 0 9.4 0 18.7 0 28.1 0 0 29.5-17.8 55.5-45.8 65.2-11.2 3.9 11.3-3.9 0 0zM147.1 116.4c5.6 5.9 12.7 11.1 20.4 14 10.5 4 22.4 3.8 33.3 6.6 9 2.3 20.2 5.9 27.2 12.4 6.4 6 7.1 15.2 7.7 23.5 0.5 7 0.4 13.9 0.4 20.9 0 4.9-5.7 7.7-8.5 11.6-4.5 6.1-4.7 15.2-5.6 22.5-0.4 3.2-0.5 7.3-3.2 9.5-3 2.4-5.2 3.7-6.7 7.5-2 5.2-2.7 10.8-4.3 16.2-1 3.5 2.5 6.8 3.9 9.7 2.6 5.3-1.9 13.5-2.8 19-2.8 16.4-2.7 34.3 9.1 47.3 23.7 26.2 78 17.9 85.8-18.9 2.4-11.5 0.9-24.9-2.3-36.1-1.4-4.8-3-8.3-0.2-13 4.2-6.8 2.4-11.2 0.4-18.8-1.6-6.3-3.6-9.1-8.4-13-4-3.2-3.4-11.2-4.1-15.8-0.8-5.6-1.3-11.5-4.7-16.2-1.3-1.8-8.4-7.4-8.4-9.3 0-11-0.5-22.2 1.4-33.1 2.6-15.5 15.6-19.2 28.6-24.5 13.2-5.1 28.5-3.2 41.3-9.5 13.2-6.5 25.9-18.4 29.7-33.1-79.3 0-158.6 0-237.9 0-1.4 0-2.8 0-4.2 0 1.9 8.3 6.5 14.6 12.1 20.6 9.2 9.7-5.9-6.3 0 0zM144.1 158c7 3.5 14.6 4.3 22.3 5.1 2.8 0.3 4.1 2.2 2 4.9-4 5.1-17.8 6.1-23.6 8.4-3.6 1.4-4.6 2.7-4.9 6.7-0.1 1.8-1.1 9.8 0.3 11.1 1 1 7.3 0.6 8.7 0.8 5.7 0.7 11.5 1.9 16.9 4 2.3 0.9 4.5 2 6.5 3.4 2.4 1.8-1.8 6.2-2.9 8.6-3.4 7.5-4.9 15.7-5.4 23.9-1 16.1 1.5 32.3-1.5 48.3-4.5 24.5-23.4 36.8-47.5 36.8-14.9 0-29.6-5.1-37.9-18.1-9.2-14.3-8.7-32.1-8.2-48.4 0.3-9.3 0.7-18.7-0.6-28-0.6-4-1.5-7.9-2.9-11.7-1.1-2.9-6.7-10.1-4.5-11.6 8.3-5.9 22.3-7.9 32.3-7.1 0.3-4.9 1.2-11.2-0.6-15.8-2.8-7.2-23.7-9.1-30-11.2-17.6-5.9-30.6-20.6-30.6-40.1 18.3 0 36.5 0 54.8 0 8.2 0 16.4 0 24.7 0 1.3 0 6.3 9.3 7.7 10.8 7 7.8 15.6 14.5 24.9 19.2 9 4.5-14.6-7.4 0 0zM102.8 144c-16.3 0-32.6 0-48.9 0 7.1 11.8 24.9 11 36.6 15.2 10.8 3.9 17.7 10.5 18.8 22 0.1 1.3 0.2 29.2-0.9 29.2-8.7 0.3-17.8 0.1-26.5 1.4 6.9 22.3 0.3 45.3 4 67.8 2.7 16.3 13.1 25.3 29.7 25.3 15.9 0 27.7-7.4 31.1-23.4 4.8-23.2-2-46.9 5.4-69.9-5.5-1.4-11.3-1.6-17-1.8-2.8-0.1-5.7-0.2-8.5-0.3-1.8-0.1-1.2-3.2-1.3-4.7-1-10.9-5-28.1 3.7-36.9-9.6-6-20-14.3-26.2-23.9zM399.8 128c26.7 0 53.5 0 80.2 0 0 19.5-13.1 34.3-30.7 40.1-8.1 2.6-23.7 3.4-29.5 10.4-2.9 3.5-1.3 12.4-1 16.6 4.4-0.4 9.2 0.3 13.7 0.9 4.1 0.6 8.1 1.4 12 2.8 1.8 0.7 3.6 1.4 5.3 2.4 3.9 2.3 2.1 2.7 0.1 6.1-10.9 18.3-6 41.5-6.5 61.6-0.4 16.7-4.8 35-20 44.4-13.7 8.5-34 8.8-48.7 2.8-42.4-17-17.4-73.2-31.9-105.4-2.5-5.4-6.1-7.3 0.2-10.5 3.5-1.8 7.3-3 11.1-3.9 5.8-1.4 11.8-2.2 17.8-2.4 1 0 0.3-12.6 0-13.9-1.1-4.9-11.8-6.3-15.8-7.4-4.1-1.1-10.9-1.4-12.9-5.7-3-6.4 9.9-4.8 13.1-5.4 10.3-1.9 19.4-7.6 27.4-14.1 5.9-4.8 13.9-11.6 16.1-19.4zM399.4 155.1c-5.1 4.7-10.4 9.3-16.3 13 8.8 8.8 4.7 25.9 3.7 36.9-0.6 6.3-2 4.7-8.3 4.9-6 0.2-12.8-0.1-18.5 1.8 7.2 22.3 1.3 45.2 5 67.9 2.8 17.1 14.5 25.5 31.5 25.5 15.4 0 26-7.7 29.2-23 4.9-23.1-2.6-47 4.5-70-8.5-1.3-17.3-1-25.9-1.3-2.1-0.1-1.9-25.1-1.7-27.3 0.7-11.7 6.1-18.8 17.2-23.3 12.1-4.9 31-3.6 38.4-15.9-9.3 0-18.5 0-27.8 0-5.6 0-11.2 0-16.9 0-7.1-0.1-8.9 6.1-14.1 10.8-5 4.6 4-3.6 0 0z" />
<glyph unicode="&#xe686;" d="M349.2 145.2c11.3-3.9-11.2 3.9 0 0v0zM349.2 145.2c-13.5 4.7-28.1 5-41.6 9.7-4.1 1.4-12.2 3.1-13.9 7.8-1.6 4.6-1.6 10-1.9 14.8-0.2 3.8-0.3 7.6-0.3 11.4 0 2.5 6.4 7.8 7.8 10.1 5.4 9 5.9 21.1 6.9 31.3 8.7-2.4 9.8 13.7 11.3 18.6 1.1 3.4 7.8 26.8-2.6 23.6 2.5 4.4 3.5 9.8 4.2 14.7 2 12.8 2.8 26.8-1.1 39.3-8.1 26-33 40.6-59.3 41.4-26.7 0.9-53.5-11.9-63.5-37.8-4.8-12.6-4.4-26.3-2.8-39.5 0.7-6 1.7-12.7 4.7-18.1-9.7 2.9-4.5-17.7-3.4-21.3 1.6-5.1 3-23.4 12.1-20.9 0.8-8.1 1.7-16.4 3.9-24.3 1.5-5.3 4.6-9.8 8.2-13.9 1.8-2 2.7-2.2 2.6-4.8-0.1-7.8 0.1-16.2-1.9-23.8s-18.7-10.8-25.4-12.2c-18-3.7-34.6-5.4-49.6-16.6-17.5-12.9-26.6-33-26.6-54.7 83.3 0 166.6 0 249.9 0 9.4 0 18.7 0 28.1 0 0 29.5-17.8 55.5-45.8 65.2zM143.3 157.5c0.6 0.3 1.2 0.6 1.6 0.8-0.3-0.1-0.6-0.3-0.8-0.4-0.3-0.1-0.5-0.2-0.8-0.4zM143.3 157.5c-3.4-1.7-7.5-3.8 0.8 0.4 3 1.5 2.4 1.2 0.8 0.4 6.8 3.2 14.1 4 21.4 4.7 2.8 0.3 4.1 2.2 2 4.9-4 5.1-17.8 6.1-23.6 8.4-3.6 1.4-4.6 2.7-4.9 6.7-0.1 1.8-1.1 9.8 0.3 11.1 1 1 7.3 0.6 8.7 0.8 5.7 0.7 11.5 1.9 16.9 4 2.3 0.9 4.5 2 6.5 3.4 2.4 1.8-1.8 6.2-2.9 8.6-3.4 7.5-4.9 15.7-5.4 23.9-1 16.1 1.5 32.3-1.5 48.3-4.5 24.5-23.4 36.8-47.5 36.8-14.9 0-29.6-5.1-37.9-18.1-9.2-14.3-8.7-32.1-8.2-48.4 0.3-9.3 0.7-18.7-0.6-28-0.6-4-1.5-7.9-2.9-11.7-1.1-2.9-6.7-10.1-4.5-11.6 8.3-5.9 22.3-7.9 32.3-7.1 0.3-4.9 1.2-11.2-0.6-15.8-2.8-7.2-23.7-9.1-30-11.2-17.5-5.8-30.5-20-30.5-40 18.3 0 36.5 0 54.8 0 8.2 0 16.4 0 24.7 0 1.3 0 6.3 9.3 7.7 10.8 6.8 7.5 15.1 14 24.1 18.7zM449.3 168.1c-8.1 2.6-23.7 3.4-29.5 10.4-2.9 3.5-1.3 12.4-1 16.6 4.4-0.4 9.2 0.3 13.7 0.9 4.1 0.6 8.1 1.4 12 2.8 1.8 0.7 3.6 1.4 5.3 2.4 3.9 2.3 2.1 2.7 0.1 6.1-10.9 18.3-6 41.5-6.5 61.6-0.4 16.7-4.8 35-20 44.4-13.7 8.5-34 8.8-48.7 2.8-42.4-17-17.4-73.2-31.9-105.4-2.5-5.4-6.1-7.3 0.2-10.5 3.5-1.8 7.3-3 11.1-3.9 5.8-1.4 11.8-2.2 17.8-2.4 1 0 0.3-12.6 0-13.9-1.1-4.9-11.8-6.3-15.8-7.4-4.1-1.1-10.9-1.4-12.9-5.7-3-6.4 9.9-4.8 13.1-5.4 10.3-1.9 19.4-7.6 27.4-14.1 6-4.9 14.1-11.5 16.3-19.5 26.7 0 53.5 0 80.2 0-0.2 20.1-13.3 34.4-30.9 40.2z" />
<glyph unicode="&#xe687;" d="M202.4 278.3v0 0zM363.3 116.1c-12.9 4.6-31.4 6.2-43.2 8.8-6.8 1.5-16.7 5.3-20 9.2-3.3 4-1.3 40.9-1.3 40.9s6.1 9.6 9.4 18 6.9 31.4 6.9 31.4 6.8 0 9.2 11.9c2.6 13 6.6 18.4 6.1 28.1-0.5 9-5.2 9.5-5.7 9.5v0c0 0 4.9 13.6 5.6 42.4 0.8 34.1-25.3 67.7-74.3 67.7s-75-33.5-74.3-67.6c0.6-28.7 5.6-42.4 5.6-42.4v0c-0.5 0-5.2-0.5-5.7-9.5-0.5-9.7 3.6-14.9 6.1-27.9 2.4-11.9 9.2-12 9.2-12s3.6-23.1 6.9-31.5c3.3-8.5 9.4-18 9.4-18s2-36.9-1.3-40.9c-3.3-4-13.2-7.7-20-9.2-11.9-2.6-30.3-4.3-43.2-8.9s-52.7-20.1-52.7-52.1h320c0 32-39.8 47.5-52.7 52.1zM256 80h-137.3c2 3 4.7 5.1 8.2 7.6 7 5.1 16.1 9.8 27.1 13.6 6.8 2.4 16.7 4 25.4 5.3 5.7 0.9 11.1 1.7 15.9 2.8 3.4 0.8 20.8 5 28.8 14.6 4.5 5.4 5.8 12.7 5.6 32.3-0.1 10-0.6 19.3-0.6 19.7l-0.2 4.2-2.3 3.5c-1.5 2.3-5.8 9.5-8 15.3-1.8 4.7-4.6 19.2-6 28.1 0 0 0.4-1-0.5 3.7s-8.4 4.3-9.4 8c-0.9 3.6-1.8 6.9-4.3 18.2s2.8 11.2 3.9 16.2c0.6 3.1 0 5.7 0 5.8v0c-0.3 1-4.1 13.4-4.7 37.7-0.3 13.2 4.6 25.6 13.8 34.9 10.6 10.8 26 16.5 44.5 16.5 19 0 34-5.7 44.6-16.5 9.2-9.3 14.1-21.7 13.8-34.9-0.5-24.2-4.3-36.6-4.7-37.7v0c0-0.1-0.6-1.7-0.4-5.2 0.2-5.4 6.8-5.5 4.3-16.8s-3.4-14.6-4.3-18.2c-0.9-3.6-8.5-3.3-9.4-8s-0.5-3.7-0.5-3.7c-1.4-8.9-4.2-23.4-6-28.1-2.3-5.8-6.6-13-8-15.3l-2.3-3.5-0.2-4.2c0-0.4-0.5-9.7-0.6-19.7-0.2-19.6 1.1-26.9 5.6-32.3 8-9.5 25.4-13.8 28.8-14.6 4.8-1.1 10.2-1.9 15.9-2.8 8.7-1.3 18.6-2.9 25.4-5.3 11-3.9 20.2-8.6 27.1-13.7 3.5-2.5 6.2-4.6 8.2-7.6l-137.2 0.1z" />
<glyph unicode="&#xe688;" d="M363.3 116.1c-12.9 4.6-31.4 6.2-43.2 8.8-6.8 1.5-16.7 5.3-20 9.2-3.3 4-1.3 40.9-1.3 40.9s6.1 9.6 9.4 18 6.9 31.4 6.9 31.4 6.8 0 9.2 11.9c2.6 13 6.6 18.4 6.1 28.1-0.5 9-5.2 9.5-5.7 9.5v0c0 0 4.9 13.6 5.6 42.4 0.8 34.1-25.3 67.7-74.3 67.7s-75-33.5-74.3-67.6c0.6-28.7 5.6-42.4 5.6-42.4v0c-0.5 0-5.2-0.5-5.7-9.5-0.5-9.7 3.6-14.9 6.1-27.9 2.4-11.9 9.2-12 9.2-12s3.6-23.1 6.9-31.5c3.3-8.5 9.4-18 9.4-18s2-36.9-1.3-40.9c-3.3-4-13.2-7.7-20-9.2-11.9-2.6-30.3-4.3-43.2-8.9s-52.7-20.1-52.7-52.1h320c0 32-39.8 47.5-52.7 52.1z" />
<glyph unicode="&#xe689;" d="M416 327h-25v25h-14v-25h-25v-14h25v-25h14v25h25zM202.4 278.3c0 0 0 0 0 0v0zM363.3 116.1c-12.9 4.6-31.4 6.2-43.2 8.8-6.8 1.5-16.7 5.3-20 9.2-3.3 4-1.3 40.9-1.3 40.9s6.1 9.6 9.4 18c3.3 8.4 6.9 31.4 6.9 31.4s6.8 0 9.2 11.9c2.6 13 6.6 18.4 6.1 28.1-0.5 9-5.2 9.5-5.7 9.5 0 0 0 0 0 0s4.9 13.6 5.6 42.4c0.8 34.1-25.3 67.7-74.3 67.7s-75-33.5-74.3-67.6c0.6-28.7 5.6-42.4 5.6-42.4s0 0 0 0c-0.5 0-5.2-0.5-5.7-9.5-0.5-9.7 3.6-14.9 6.1-27.9 2.4-11.9 9.2-12 9.2-12s3.6-23.1 6.9-31.5c3.3-8.5 9.4-18 9.4-18s2-36.9-1.3-40.9c-3.3-4-13.2-7.7-20-9.2-11.9-2.6-30.3-4.3-43.2-8.9s-52.7-20.1-52.7-52.1h320c0 32-39.8 47.5-52.7 52.1zM256 80h-137.3c2 3 4.7 5.1 8.2 7.6 7 5.1 16.1 9.8 27.1 13.6 6.8 2.4 16.7 4 25.4 5.3 5.7 0.9 11.1 1.7 15.9 2.8 3.4 0.8 20.8 5 28.8 14.6 4.5 5.4 5.8 12.7 5.6 32.3-0.1 10-0.6 19.3-0.6 19.7l-0.2 4.2-2.3 3.5c-1.5 2.3-5.8 9.5-8 15.3-1.8 4.7-4.6 19.2-6 28.1 0 0 0.4-1-0.5 3.7s-8.4 4.3-9.4 8c-0.9 3.6-1.8 6.9-4.3 18.2s2.8 11.2 3.9 16.2c0.6 3.1 0 5.7 0 5.8 0 0 0 0 0 0-0.3 1-4.1 13.4-4.7 37.7-0.3 13.2 4.6 25.6 13.8 34.9 10.6 10.8 26 16.5 44.5 16.5 19 0 34-5.7 44.6-16.5 9.2-9.3 14.1-21.7 13.8-34.9-0.5-24.2-4.3-36.6-4.7-37.7 0 0 0 0 0 0 0-0.1-0.6-1.7-0.4-5.2 0.2-5.4 6.8-5.5 4.3-16.8s-3.4-14.6-4.3-18.2c-0.9-3.6-8.5-3.3-9.4-8s-0.5-3.7-0.5-3.7c-1.4-8.9-4.2-23.4-6-28.1-2.3-5.8-6.6-13-8-15.3l-2.3-3.5-0.2-4.2c0-0.4-0.5-9.7-0.6-19.7-0.2-19.6 1.1-26.9 5.6-32.3 8-9.5 25.4-13.8 28.8-14.6 4.8-1.1 10.2-1.9 15.9-2.8 8.7-1.3 18.6-2.9 25.4-5.3 11-3.9 20.2-8.6 27.1-13.7 3.5-2.5 6.2-4.6 8.2-7.6h-137.2z" />
<glyph unicode="&#xe68a;" d="M416 327h-25v25h-14v-25h-25v-14h25v-25h14v25h25zM363.3 116.1c-12.9 4.6-31.4 6.2-43.2 8.8-6.8 1.5-16.7 5.3-20 9.2-3.3 4-1.3 40.9-1.3 40.9s6.1 9.6 9.4 18c3.3 8.4 6.9 31.4 6.9 31.4s6.8 0 9.2 11.9c2.6 13 6.6 18.4 6.1 28.1-0.5 9-5.2 9.5-5.7 9.5 0 0 0 0 0 0s4.9 13.6 5.6 42.4c0.8 34.1-25.3 67.7-74.3 67.7s-75-33.5-74.3-67.6c0.6-28.7 5.6-42.4 5.6-42.4s0 0 0 0c-0.5 0-5.2-0.5-5.7-9.5-0.5-9.7 3.6-14.9 6.1-27.9 2.4-11.9 9.2-12 9.2-12s3.6-23.1 6.9-31.5c3.3-8.5 9.4-18 9.4-18s2-36.9-1.3-40.9c-3.3-4-13.2-7.7-20-9.2-11.9-2.6-30.3-4.3-43.2-8.9s-52.7-20.1-52.7-52.1h320c0 32-39.8 47.5-52.7 52.1z" />
<glyph unicode="&#xe68b;" d="M96 352v-320h384v320h-384zM464 48h-352v288h352v-288zM32 416v-320h48v16h-32v288h352v-32h16v48z" />
<glyph unicode="&#xe68c;" d="M96 352v-320h384v320h-384zM416 416h-384v-320h48v272h336z" />
<glyph unicode="&#xe68d;" d="M400 368v-288h-288v288h288zM416 384h-320v-320h320v320zM174.856 131.88l-13.72 8.232 48 80c1.336 2.216 3.664 3.664 6.24 3.856 2.616 0.224 5.112-0.864 6.76-2.856l33.144-39.768 58.056 87.088c1.664 2.496 4.592 3.84 7.568 3.512 2.984-0.344 5.52-2.328 6.576-5.144l48-128-14.984-5.616-42.512 113.376-55.336-83c-1.4-2.104-3.712-3.416-6.232-3.552-2.512-0.104-4.96 0.928-6.568 2.864l-32.792 39.344-42.2-70.336zM192 272c-17.648 0-32 14.352-32 32s14.352 32 32 32c17.648 0 32-14.352 32-32s-14.352-32-32-32v0zM192 320c-8.824 0-16-7.176-16-16s7.176-16 16-16c8.824 0 16 7.176 16 16s-7.176 16-16 16v0zM96 144h320v-16h-320v16z" />
<glyph unicode="&#xe68e;" d="M448 32h-296v16h280v280h16v-296zM416 64h-312v16h296v296h16v-312zM368 400v-288h-288v288h288zM384 416h-320v-320h320v320zM142.856 163.88l-13.72 8.232 48 80c1.336 2.216 3.664 3.664 6.24 3.856 2.616 0.224 5.112-0.864 6.76-2.856l33.144-39.768 58.056 87.088c1.664 2.496 4.592 3.84 7.568 3.512 2.984-0.344 5.52-2.328 6.576-5.144l48-128-14.984-5.616-42.512 113.376-55.336-83c-1.4-2.104-3.712-3.416-6.232-3.552-2.512-0.104-4.96 0.928-6.568 2.864l-32.792 39.344-42.2-70.336zM160 304c-17.648 0-32 14.352-32 32s14.352 32 32 32c17.648 0 32-14.352 32-32s-14.352-32-32-32v0zM160 352c-8.824 0-16-7.176-16-16s7.176-16 16-16c8.824 0 16 7.176 16 16s-7.176 16-16 16v0zM64 176h320v-16h-320v16z" />
<glyph unicode="&#xe68f;" d="M64 208c0-5.4 0.2-10.7 0.6-16 1.3-17.1 4.7-33.7 9.9-49.4 7.9-23.8 19.9-45.7 35.3-64.8 38.1-47.4 96.6-77.8 162.2-77.8 114.9 0 208 93.1 208 208 0 65.6-30.4 124.1-77.8 162.2-19.1 15.4-41 27.4-64.8 35.3-15.7 5.2-32.3 8.6-49.4 9.9-5.3 0.4-10.6 0.6-16 0.6v-208h-208zM80.7 192h207.3v207.3c20.3-1.7 40-6.5 58.7-14.4 15.9-6.7 30.6-15.5 44.1-26.1 5.9-4.7 11.6-9.7 16.9-15.1 11.6-11.6 21.5-24.4 29.7-38.4 4.3-7.3 8.1-14.8 11.4-22.7 10-23.7 15.1-48.8 15.1-74.7s-5.1-51.1-15.1-74.7c-9.7-22.9-23.5-43.4-41.2-61-17.6-17.6-38.2-31.5-61-41.2-23.7-10-48.8-15.1-74.7-15.1s-51.1 5.1-74.7 15.1c-7.8 3.3-15.4 7.1-22.7 11.4-13.9 8.2-26.8 18.1-38.4 29.7-5.4 5.4-10.4 11-15.1 16.9-10.6 13.5-19.4 28.2-26.1 44.1-7.8 18.9-12.6 38.6-14.2 58.9zM32 240c0-5.4 0.2-10.7 0.6-16h223.4v223.4c-5.3 0.4-10.6 0.6-16 0.6-114.9 0-208-93.1-208-208zM48 240c0 25.9 5.1 51.1 15.1 74.7 9.7 22.9 23.5 43.4 41.2 61 17.6 17.6 38.2 31.5 61 41.2 23.6 10 48.8 15.1 74.7 15.1v-192h-192z" />
<glyph unicode="&#xe690;" d="M64 208c0-5.4 0.2-10.7 0.6-16 1.3-17.1 4.7-33.7 9.9-49.4 7.9-23.8 19.9-45.7 35.3-64.8 38.1-47.4 96.6-77.8 162.2-77.8 114.9 0 208 93.1 208 208 0 65.6-30.4 124.1-77.8 162.2-19.1 15.4-41 27.4-64.8 35.3-15.7 5.2-32.3 8.6-49.4 9.9-5.3 0.4-10.6 0.6-16 0.6v-208h-208zM32 240c0-5.4 0.2-10.7 0.6-16h223.4v223.4c-5.3 0.4-10.6 0.6-16 0.6-114.9 0-208-93.1-208-208z" />
<glyph unicode="&#xe691;" d="M384 215h-120v-119h-17v119h-119v17h119v120h17v-120h120v-17z" />
<glyph unicode="&#xe692;" d="M256 432c-114.9 0-208-93.1-208-208s93.1-208 208-208c114.9 0 208 93.1 208 208s-93.1 208-208 208zM256 33.3c-105.1 0-190.7 85.5-190.7 190.7s85.6 190.7 190.7 190.7 190.7-85.6 190.7-190.7-85.6-190.7-190.7-190.7zM264.1 352h-16.8v-119.9h-119.3v-16.8h119.3v-119.3h16.8v119.3h119.9v16.8h-119.9z" />
<glyph unicode="&#xe693;" d="M256 432c-114.9 0-208-93.1-208-208s93.1-208 208-208c114.9 0 208 93.1 208 208s-93.1 208-208 208zM384 215h-120v-119h-17v119h-119v17h119v120h17v-120h120v-17z" />
<glyph unicode="&#xe694;" d="M207.1 400c6.1-0.1 11.9-2.5 16.2-6.8l204.1-213.8c2.9-2.9 4.5-6.9 4.5-11.2s-1.6-8.2-4.5-11.1l-104.4-104.6c-2.9-2.9-6.9-4.5-11.1-4.5-4.3 0-8.3 1.6-11.2 4.5l-0.2 0.2-213.9 207.1c-4.3 4.5-6.6 10.3-6.6 16.4v108c0 8.7 7.1 15.8 15.8 15.8h111.3zM207.2 416h-111.4c-17.6 0-31.8-14.2-31.8-31.8v-108.1c0-10.8 4.3-20.5 11.3-27.7l214-207.2c6.1-6.1 14.3-9.2 22.5-9.2 8.1 0 16.3 3 22.5 9.2l104.5 104.4c6.2 6.2 9.2 14.3 9.2 22.5s-3.1 16.4-9.2 22.5l-204 213.8c-7.7 7.6-17.6 11.5-27.6 11.6v0zM160 352c17.7 0 32-14.3 32-32s-14.3-32-32-32-32 14.3-32 32 14.3 32 32 32zM160 368c-26.5 0-48-21.5-48-48s21.5-48 48-48 48 21.5 48 48-21.5 48-48 48v0z" />
<glyph unicode="&#xe695;" d="M192 320c0-17.673-14.327-32-32-32s-32 14.327-32 32c0 17.673 14.327 32 32 32s32-14.327 32-32zM438.8 190.6l-204 213.8c-7.6 7.6-17.6 11.5-27.5 11.6h-111.5c-17.6 0-31.8-14.2-31.8-31.8v-108.1c0-10.8 4.3-20.5 11.3-27.7l214-207.2c6.1-6.1 14.3-9.2 22.5-9.2 8.1 0 16.3 3 22.5 9.2l104.5 104.4c6.2 6.2 9.2 14.3 9.2 22.5s-3.1 16.4-9.2 22.5zM160 272c-26.5 0-48 21.5-48 48s21.5 48 48 48 48-21.5 48-48-21.5-48-48-48z" />
<glyph unicode="&#xe696;" d="M448 416v32h-160l-256-288 160-160 23.471 23.904 24.529-23.904 240 272v144h-32zM192 22.629l-137.61 137.371 240.231 272h137.379v-137.377l-216.555-247.99-11.34-11.363-12.105-12.641zM464 278.623l-224-255.994-13.182 12.65 221.182 252.721v112h16v-121.377zM352 320c17.645 0 32 14.355 32 32s-14.355 32-32 32-32-14.355-32-32 14.355-32 32-32zM352 368c8.836 0 16-7.163 16-16s-7.164-16-16-16-16 7.163-16 16 7.164 16 16 16z" />
<glyph unicode="&#xe697;" d="M464 416v-137.377l-236.847-266.103 12.847-12.52 240 272v144zM288 448l-256-288 160-160 23.471 23.904 11.348 11.375 221.181 252.721v160h-160zM352 320c-17.645 0-32 14.355-32 32s14.355 32 32 32 32-14.355 32-32-14.355-32-32-32zM368 352c0-8.837-7.163-16-16-16s-16 7.163-16 16c0 8.837 7.163 16 16 16s16-7.163 16-16z" />
<glyph unicode="&#xe698;" d="M432.5 368h-32.5v48h-288v-48h-31.5c-17.6 0-32.5-13.8-32.5-31.3v-158.4c0-17.5 14.9-32.3 32.5-32.3h47.5v-114h256v114h48.5c17.6 0 31.5 14.8 31.5 32.3v158.4c0 17.5-13.9 31.3-31.5 31.3zM128 400h256v-32h-256v32zM368 48h-224v192h224v-192zM448 178.3c0-8.7-6.7-16.3-15.5-16.3h-48.5v94h-256v-94h-47.5c-8.8 0-16.5 7.6-16.5 16.3v158.4c0 8.7 7.7 15.3 16.5 15.3h352c8.8 0 15.5-6.6 15.5-15.3v-158.4z" />
<glyph unicode="&#xe699;" d="M432.5 368h-32.5v48h-288v-48h-31.5c-17.6 0-32.5-13.8-32.5-31.3v-158.4c0-17.5 14.9-32.3 32.5-32.3h31.5v126h288v-126h32.5c17.6 0 31.5 14.8 31.5 32.3v158.4c0 17.5-13.9 31.3-31.5 31.3zM128 256h256v-224h-256v224z" />
<glyph unicode="&#xe69a;" d="M64 80h10.3l19.2 31.2c20.5 32.7 44.9 62.8 75.8 76.6 24.4 10.9 46.7 18.9 86.7 20v-79.8l192 128-192 128v-80.3c-63-2.8-108.1-20.7-143.3-56.2-52.3-52.7-48.7-119-48.7-135.7 0.1-8.9 0-21.7 0-31.8zM272 288v64.7l148.1-96.8-148.1-96.7v64.8c-91 0-144.6-24.6-192.2-105.4 0 0-8.8 169.4 192.2 169.4z" />
<glyph unicode="&#xe69b;" d="M64 80h10.3l19.2 31.2c20.5 32.7 44.9 62.8 75.8 76.6 24.4 10.9 46.7 18.9 86.7 20v-79.8l192 128-192 128v-80.3c-63-2.8-108.1-20.7-143.3-56.2-52.3-52.7-48.7-119-48.7-135.7 0.1-8.9 0-21.7 0-31.8z" />
<glyph unicode="&#xe69c;" d="M256 95.9c-70.7 0-128 57.3-128 128.1s57.3 128.1 128 128.1v43.9l96-64-96-55.7v55.8c-59.6 0-108.1-48.5-108.1-108.1s48.5-108.1 108.1-108.1 108.1 48.1 108.1 108.1h19.9c0-71-57.3-128.1-128-128.1z" />
<glyph unicode="&#xe69d;" d="M364.1 224c0-60-48.5-108.2-108.1-108.2s-108.1 48.5-108.1 108.2c0 59.6 48.5 108.1 108.1 108.1v-55.8l96 55.7-96 64v-44c-70.7 0-128-57.4-128-128.1 0-70.8 57.3-128.1 128-128.1s128 57.1 128 128.1h-19.9zM256 432c-114.9 0-208-93.1-208-208s93.1-208 208-208c114.9 0 208 93.1 208 208s-93.1 208-208 208zM256 33.3c-105.1 0-190.7 85.5-190.7 190.7 0 105.1 85.5 190.7 190.7 190.7 105.1 0 190.7-85.5 190.7-190.7 0-105.1-85.6-190.7-190.7-190.7z" />
<glyph unicode="&#xe69e;" d="M256 432c-114.9 0-208-93.1-208-208s93.1-208 208-208c114.9 0 208 93.1 208 208s-93.1 208-208 208zM256 95.9c-70.7 0-128 57.3-128 128.1s57.3 128.1 128 128.1v43.9l96-64-96-55.7v55.8c-59.6 0-108.1-48.5-108.1-108.1s48.5-108.1 108.1-108.1 108.1 48.1 108.1 108.1h19.9c0-71-57.3-128.1-128-128.1z" />
<glyph unicode="&#xe69f;" d="M256 416c105.9 0 191.7-85.7 191.9-191.5l55 52.5 9-9.1-70.3-67.9-66.6 67.9 9 9.1 51.1-52.4c-0.3 98.5-80.5 178.6-179.1 178.6-98.8 0-179.2-80.4-179.2-179.2s80.4-179.2 179.2-179.2c78.6 0 145.5 51 169.5 121.6l12.4-3.5c-25.6-76.1-97.3-130.9-181.9-130.9-106 0-192 86-192 192s86 192 192 192z" />
<glyph unicode="&#xe6a0;" d="M434.2 239.5c-35.2 35.4-80.3 53.4-143.3 56.2v80.3l-191.9-128 192-128v79.8c40-1.1 62.4-9.1 86.7-20 30.9-13.8 55.3-44 75.8-76.6l19.2-31.2h10.3c0 10.1-0.1 22.9-0.1 31.8 0 16.8 3.6 83.1-48.7 135.7zM275 216v-64.8l-148.1 96.7 148.1 96.8v-64.7c201 0 192.2-169.4 192.2-169.4-47.6 80.8-101.2 105.4-192.2 105.4zM56.98 248l164.019 107.43-0.1 20.57-191.9-128 192-128v20.606l-164.019 107.394z" />
<glyph unicode="&#xe6a1;" d="M344.5 182c15 23.6 23.8 51.6 23.8 81.7 0 84.1-68.1 152.3-152.1 152.3-84.1 0-152.2-68.2-152.2-152.3s68.1-152.3 152.1-152.3c30.5 0 58.9 9 82.7 24.4l6.9 4.8 108.6-108.6 33.7 34.3-108.5 108.6 5 7.1zM301.4 348.8c22.7-22.7 35.2-52.9 35.2-85s-12.5-62.3-35.2-85c-22.7-22.7-52.9-35.2-85-35.2s-62.3 12.5-85 35.2c-22.7 22.7-35.2 52.9-35.2 85s12.5 62.3 35.2 85c22.7 22.7 52.9 35.2 85 35.2s62.3-12.5 85-35.2z" />
<glyph unicode="&#xe6a2;" d="M448.3 55.3l-113.3 113.4c20.8 26 33.3 59.1 33.3 95.1 0 84.1-68.1 152.2-152 152.2-84 0-152-68.2-152-152.2s68.1-152.2 152-152.2c36.2 0 69.4 12.7 95.5 33.8l113.2-113.4 23.3 23.3zM120.1 167.4c-25.7 25.7-39.8 59.9-39.8 96.3s14.2 70.6 39.8 96.3 59.9 40 96.2 40c36.3 0 70.5-14.2 96.2-39.9s39.8-59.9 39.8-96.3-14.2-70.6-39.8-96.3c-25.7-25.7-59.9-39.9-96.2-39.9-36.3-0.1-70.5 14.1-96.2 39.8z" />
<glyph unicode="&#xe6a3;" d="M96 230.4l116.6-51.3 57.2-115.1 146.2 320-320-153.6zM228.1 183.5l155.7 166.2-114.6-248.9-41.1 82.7zM381.8 351.7l-165-157.1-82.8 36.4 247.8 120.7z" />
<glyph unicode="&#xe6a4;" d="M96 230.4l106-46.7 214 200.3zM416 384l-198.1-215.7 51.9-104.3z" />
<glyph unicode="&#xe6a5;" d="M32 104h283.35c6.186 14.112 20.281 24 36.65 24s30.465-9.888 36.65-24h91.35v-32h-91.35c-6.186-14.112-20.281-24-36.65-24s-30.465 9.888-36.65 24h-283.35zM32 240h91.35c6.186 14.112 20.281 24 36.65 24s30.465-9.888 36.65-24h283.35v-32h-283.35c-6.186-14.112-20.281-24-36.65-24s-30.465 9.888-36.65 24h-91.35zM32 376h283.35c6.186 14.112 20.281 24 36.65 24s30.465-9.888 36.65-24h91.35v-32h-91.35c-6.186-14.112-20.281-24-36.65-24s-30.465 9.888-36.65 24h-283.35z" />
<glyph unicode="&#xe6a6;" d="M352 376c8.837 0 16-7.163 16-16s-7.163-16-16-16-16 7.163-16 16 7.163 16 16 16zM352 392c-17.645 0-32-14.355-32-32s14.355-32 32-32 32 14.355 32 32-14.355 32-32 32v0zM352 104c8.837 0 16-7.163 16-16s-7.163-16-16-16-16 7.163-16 16 7.163 16 16 16zM352 120c-17.645 0-32-14.355-32-32s14.355-32 32-32 32 14.355 32 32-14.355 32-32 32v0zM160 240c8.837 0 16-7.163 16-16s-7.163-16-16-16-16 7.163-16 16 7.163 16 16 16zM160 256c-17.645 0-32-14.355-32-32s14.355-32 32-32 32 14.355 32 32-14.355 32-32 32v0zM207.32 232h272.68v-16h-272.68c0.439 2.604 0.68 5.273 0.68 8s-0.24 5.396-0.68 8zM112 224c0-2.727 0.24-5.396 0.68-8h-80.68v16h80.68c-0.44-2.604-0.68-5.273-0.68-8zM399.32 96h80.68v-16h-80.68c0.439 2.604 0.68 5.273 0.68 8s-0.24 5.396-0.68 8zM304 88c0-2.727 0.24-5.396 0.68-8h-272.68v16h272.68c-0.44-2.604-0.68-5.273-0.68-8zM399.32 368h80.68v-16h-80.68c0.439 2.604 0.68 5.273 0.68 8s-0.24 5.396-0.68 8zM304.68 368c-0.439-2.604-0.68-5.273-0.68-8s0.24-5.396 0.68-8h-272.68v16h272.68z" />
<glyph unicode="&#xe6a7;" d="M438 50.3l-91.9 91.8 49.9 49.9h-108v-108l49.9 49.9 91.8-91.9zM74 397.7l91.9-91.8-49.9-49.9h108v108l-49.9-49.9-91.8 91.9z" />
<glyph unicode="&#xe6a8;" d="M480 195c0 122.1-99.7 220.7-223.2 221-0.2 0-0.5 0-0.7 0 0 0 0 0 0 0s0 0 0 0c-123.8 0-224.1-98.7-224.1-221 0-0.1 0-0.2 0-0.2 0-0.1 0-0.2 0-0.3 0-64 27.6-121.5 71.5-161.9l0.5-0.5 36.6 36.6-11.3 11.3-25.3-25.3c-15.8 17.2-28.6 36-38 56.8-10.4 23-16.4 47.4-17.7 72.5h31.7v16h-31.9c0.6 26 6.1 51.3 16.3 75.1 9.2 21.6 22 41.3 37.9 58.6l27.7-27.7 5.5 5.5 5.3 5.2 0.5 0.5-27.8 27.8c18 16.8 38.7 30.2 61.5 39.7 23.2 9.7 47.7 14.3 73 15.1v-36.8h16v36.9c25.3-0.8 49.9-5.3 73.1-15.1 22.7-9.5 43.3-22.8 61.3-39.6l-27.9-27.9 0.5-0.5 5.3-5.2 5.5-5.5 27.9 27.9c16-17.3 28.8-37 38-58.7 10.2-23.9 15.6-49.1 16.2-75.2h-31.9v-16h31.7c-1.4-25.1-7.3-49.6-17.7-72.5-9.5-20.8-22.3-39.6-38.1-56.8l-25.4 25.2-11.3-11.3 36.7-36.6 2.6 2.5c42.7 40.3 69.6 97 69.6 160 0 0.1 0 0.2 0 0.3-0.1-0.1-0.1 0-0.1 0.1zM240.4 225.3c-1.1-0.8-1.7-1.6-2.4-2.4-5.4-4.9-8.9-11.8-8.9-19.6 0-14.7 12.1-26.6 26.9-26.6 8.5 0 16 3.9 20.9 10 0.4 0.4 0.9 0.8 1.2 1.2l81.4 94.2-10 10.8-109.1-67.6z" />
<glyph unicode="&#xe6a9;" d="M256.1 416c-123.8 0-224.1-98.7-224.1-221 0-64.3 27.9-122 72.1-163h303.8c44.2 41 72.1 98.7 72.1 163 0 122.3-100.1 221-223.9 221zM278.2 187.9c-0.4-0.4-0.8-0.8-1.2-1.2-4.9-6.1-12.4-10-20.9-10-14.9 0-26.9 11.9-26.9 26.6 0 7.8 3.5 14.7 8.9 19.6 0.7 0.8 1.3 1.6 2.4 2.4l109.2 67.6 10-10.8-81.5-94.2zM403.6 50.5l-2.4-2.5-14.9 15-19.2 19.2 10.5 10.4 23.6-23.2c14.8 15.9 22.7 30.3 31.4 49.5 9.7 21.2 15.2 43.1 16.5 67.1h-29.1v15h29.4c-0.6 23-5.6 47-15.1 69-8.6 20-20.5 37.8-35.3 53.8l-25.9-25.7-5.1 5.1-5 4.8-0.5 0.5 25.9 25.7c-16.7 15.5-36 27.7-57.1 36.5-21.6 9-44.2 13.2-68.2 13.9v-34.6h-14v34.7c-24-0.7-46.5-4.9-68.1-13.9-21.2-8.8-40.6-21.1-57.4-36.7l25.8-25.6-0.5-0.5-10-9.8-25.9 25.6c-14.8-16-26.7-34-35.3-53.9-9.5-22-14.6-46-15.1-69h29.4v-15h-29.2c1.3-24 6.8-45.9 16.5-67.1 8.8-19.2 16.6-33.7 31.4-49.6l23.5 23.2 10.6-10.4-19.2-19-14.8-14.9-0.6 0.6c-40.8 37.3-62.5 96.8-62.5 146.6 0 0.1 0 0.2 0 0.3s0 0.3 0 0.3c0 84.2 53.8 157.6 125.9 188.1 25.2 10.7 53.3 16 82.5 16 0 0 0 0 0 0s0 0 0 0 0 0 0 0c29-0.1 57.9-5.2 82.9-16 72.8-31.4 125.3-104.1 125.3-188.3 0-0.1 0-0.2 0-0.3s0-0.2 0-0.3c0-58.1-25.3-109.4-60.7-144.6z" />
<glyph unicode="&#xe6aa;" d="M172.248 175.069l-54.677-159.073 138.429 98.634 138.445-98.634-54.685 159.067 140.24 97.937h-171.387l-52.613 158.995-52.598-158.995h-171.402l140.248-97.931zM256 379.25l41-123.25h131l-108-74.711 42.623-122.481-106.623 75.935v244.507z" />
<glyph unicode="&#xe6ab;" d="M480 273h-171.4l-52.6 159.1-52.6-159.1h-171.4l140.2-97.9-54.6-159.1 138.4 98.6 138.4-98.6-54.7 159.1 140.3 97.9zM362.6 58.8l-106.6 76-106.6-76 42.6 122.5-108 74.7h131l41 123.3 41-123.3h131l-108-74.6 42.6-122.6z" />
<glyph unicode="&#xe6ac;" d="M480 273h-171.4l-52.6 159.1-52.6-159.1h-171.4l140.2-97.9-54.6-159.1 138.4 98.6 138.4-98.6-54.7 159.1 140.3 97.9z" />
<glyph unicode="&#xe6ad;" d="M397.6 333.3l-1.8 1.7h18.4l8.5-7.8 22.5 22.8-40.8 40.3-23.2-22.3 8.8-9.2v-18.6l-5 4.7c-31.3 28.3-70 45.2-113 48.9v38.2h-32v-38h-2c-43.7-3-85-22.5-116-53v17.8l8.9 9.2-22.9 22.2-40.8-40.2 22.5-22.8 8.5 7.8h17.8c-0.3 0-0.7-0.7-1-1.1-32.8-35.1-51-80.9-51-128.5 0-104.4 86.1-189.4 192.1-189.4 105.8 0 191.9 84.9 191.9 189.3 0 47.6-18 93.1-50.4 128zM256.3 34.3c-95.5 0-173.1 76.7-173.1 170.9 0 94.3 77.7 170.9 173.1 170.9 95.5 0 173.1-76.7 173.1-170.9 0.1-94.2-77.6-170.9-173.1-170.9zM264 222.7v129.3h-16v-129.4c-12.5-4.3-24-16.5-24-30.3 0-14.7 10-27 24-30.5l8-17.8 8 17.8c14 3.5 24 15.8 24 30.5 0 14.5-10.5 26.7-24 30.4z" />
<glyph unicode="&#xe6ae;" d="M397.6 333.3l-1.8 1.7h18.4l8.5-7.8 22.5 22.8-40.8 40.3-23.2-22.3 8.8-9.2v-18.6l-5 4.7c-31.3 28.3-70 45.2-113 48.9v38.2h-32v-38h-2c-43.7-3-85-22.5-116-53v17.8l8.9 9.2-22.9 22.2-40.8-40.2 22.5-22.8 8.5 7.8h17.8c-0.3 0-0.7-0.7-1-1.1-32.8-35.1-51-80.9-51-128.5 0-104.4 86.1-189.4 192.1-189.4 105.8 0 191.9 84.9 191.9 189.3 0 47.6-18 93.1-50.4 128zM264 161.8l-8-17.8-8 17.8c-14 3.5-24 15.8-24 30.5 0 13.8 11.5 26 24 30.3v129.4h16v-129.3c13.5-3.7 24-15.9 24-30.4 0-14.7-10-27-24-30.5z" />
<glyph unicode="&#xe6af;" d="M415.9 144.5c-14.6 15-56.1 43.1-83.3 43.1-6.3 0-11.8-1.4-16.3-4.3-13.3-8.5-23.9-15.1-29-15.1-2.8 0-5.8 2.5-12.4 8.2l-1.1 1c-18.3 15.9-22.2 20-29.3 27.4l-1.8 1.9c-1.3 1.3-2.4 2.5-3.5 3.6-6.2 6.4-10.7 11-26.6 29l-0.7 0.8c-7.6 8.6-12.6 14.2-12.9 18.3-0.3 4 3.2 10.5 12.1 22.6 10.8 14.6 11.2 32.6 1.3 53.5-7.9 16.5-20.8 32.3-32.2 46.2l-1 1.2c-9.8 12-21.2 18-33.9 18-14.1 0-25.8-7.6-32-11.6-0.5-0.3-1-0.7-1.5-1-13.9-8.8-24-20.9-27.8-33.2-5.7-18.5-9.5-42.5 17.8-92.4 23.6-43.2 45-72.2 79-107.1 32-32.8 46.2-43.4 78-66.4 35.4-25.6 69.4-40.3 93.2-40.3 22.1 0 39.5 0 64.3 29.9 26 31.4 15.2 50.6-0.4 66.7zM404.4 88.6c-20-24.2-31.5-24.2-52.3-24.2-20.3 0-51.8 14-84.2 37.3-31 22.4-44.8 32.7-75.9 64.6-32.9 33.7-53.6 61.8-76.4 103.5-24.1 44.1-21.4 63.4-16.5 79.3 2.6 8.5 10.4 17.6 21 24.2 0.5 0.3 1 0.7 1.6 1 5.3 3.4 14.1 9.1 23.7 9.1 8 0 15.1-4 21.9-12.3l1-1.2c25.5-31.2 45.4-58.8 30.4-79.2-10.6-14.3-16.2-24-15.3-34 0.8-9.7 7.3-17 17.1-28l0.7-0.8c16.1-18.2 20.7-23 27.1-29.5 1.1-1.1 2.2-2.3 3.5-3.6l1.8-1.9c7.4-7.7 11.5-11.9 30.3-28.4l1.1-1c8-7 13.9-12.1 22.5-12.1 8.9 0 18.7 5.6 37.3 17.5 1.9 1.2 4.6 1.9 8 1.9 21.7 0 59.1-24.8 72.2-38.3 12-12.2 18-21.4-0.6-43.9z" />
<glyph unicode="&#xe6b0;" d="M415.9 144.5c-14.6 15-56.1 43.1-83.3 43.1-6.3 0-11.8-1.4-16.3-4.3-13.3-8.5-23.9-15.1-29-15.1-2.8 0-5.8 2.5-12.4 8.2l-1.1 1c-18.3 15.9-22.2 20-29.3 27.4l-1.8 1.9c-1.3 1.3-2.4 2.5-3.5 3.6-6.2 6.4-10.7 11-26.6 29l-0.7 0.8c-7.6 8.6-12.6 14.2-12.9 18.3-0.3 4 3.2 10.5 12.1 22.6 10.8 14.6 11.2 32.6 1.3 53.5-7.9 16.5-20.8 32.3-32.2 46.2l-1 1.2c-9.8 12-21.2 18-33.9 18-14.1 0-25.8-7.6-32-11.6-0.5-0.3-1-0.7-1.5-1-13.9-8.8-24-20.9-27.8-33.2-5.7-18.5-9.5-42.5 17.8-92.4 23.6-43.2 45-72.2 79-107.1 32-32.8 46.2-43.4 78-66.4 35.4-25.6 69.4-40.3 93.2-40.3 22.1 0 39.5 0 64.3 29.9 26 31.4 15.2 50.6-0.4 66.7z" />
<glyph unicode="&#xe6b1;" d="M256 448c-123.7 0-224-100.3-224-224s100.3-224 224-224c123.7 0 224 100.3 224 224s-100.3 224-224 224zM403.1 76.9c-19.1-19.1-41.4-34.1-66.1-44.6-25.6-10.8-52.9-16.3-81-16.3s-55.3 5.5-81 16.3c-24.8 10.5-47 25.5-66.1 44.6s-34.1 41.4-44.6 66.1c-10.8 25.7-16.3 52.9-16.3 81s5.5 55.3 16.3 81c10.5 24.8 25.5 47 44.6 66.1s41.4 34.1 66.1 44.6c25.7 10.8 52.9 16.3 81 16.3s55.3-5.5 81-16.3c24.8-10.5 47-25.5 66.1-44.6s34.1-41.4 44.6-66.1c10.8-25.6 16.3-52.9 16.3-81s-5.5-55.3-16.3-81c-10.5-24.7-25.5-47-44.6-66.1zM264 400c0-4.418-3.582-8-8-8s-8 3.582-8 8c0 4.418 3.582 8 8 8s8-3.582 8-8zM264 48c0-4.418-3.582-8-8-8s-8 3.582-8 8c0 4.418 3.582 8 8 8s8-3.582 8-8zM440 224c0-4.418-3.582-8-8-8s-8 3.582-8 8c0 4.418 3.582 8 8 8s8-3.582 8-8zM88 224c0-4.418-3.582-8-8-8s-8 3.582-8 8c0 4.418 3.582 8 8 8s8-3.582 8-8zM176 376.4c0-4.418-3.582-8-8-8s-8 3.582-8 8c0 4.418 3.582 8 8 8s8-3.582 8-8zM352 71.6c0-4.418-3.582-8-8-8s-8 3.582-8 8c0 4.418 3.582 8 8 8s8-3.582 8-8zM416.4 312c0-4.418-3.582-8-8-8s-8 3.582-8 8c0 4.418 3.582 8 8 8s8-3.582 8-8zM111.6 136c0-4.418-3.582-8-8-8s-8 3.582-8 8c0 4.418 3.582 8 8 8s8-3.582 8-8zM111.6 312c0-4.418-3.582-8-8-8s-8 3.582-8 8c0 4.418 3.582 8 8 8s8-3.582 8-8zM416.4 136c0-4.418-3.582-8-8-8s-8 3.582-8 8c0 4.418 3.582 8 8 8s8-3.582 8-8zM352 376.4c0-4.418-3.582-8-8-8s-8 3.582-8 8c0 4.418 3.582 8 8 8s8-3.582 8-8zM176 71.6c0-4.418-3.582-8-8-8s-8 3.582-8 8c0 4.418 3.582 8 8 8s8-3.582 8-8zM269.9 232c-2.9 5-8.1 7.8-13.4 8l-38 63.4c-2.3 3.8-7.2 5-11 2.7s-5-7.2-2.7-11l37.6-62.9c-2.9-4.8-3.2-11.1-0.2-16.3 1.5-2.5 3.5-4.5 5.9-5.8v-122.1c0-4.4 3.6-8 8-8s8 3.6 8 8v122.1c7.6 4.5 10.2 14.2 5.8 21.9z" />
<glyph unicode="&#xe6b2;" d="M256 448c-123.7 0-224-100.3-224-224s100.3-224 224-224c123.7 0 224 100.3 224 224s-100.3 224-224 224zM256 408c4.4 0 8-3.6 8-8s-3.6-8-8-8-8 3.6-8 8 3.6 8 8 8zM80 216c-4.4 0-8 3.6-8 8s3.6 8 8 8 8-3.6 8-8c0-4.4-3.6-8-8-8zM107.6 129.1c-3.8-2.2-8.7-0.9-10.9 2.9s-0.9 8.7 2.9 10.9c3.8 2.2 8.7 0.9 10.9-2.9s0.9-8.7-2.9-10.9zM110.5 308c-2.2-3.8-7.1-5.1-10.9-2.9s-5.1 7.1-2.9 10.9 7.1 5.1 10.9 2.9c3.8-2.2 5.1-7.1 2.9-10.9zM164 383.3c3.8 2.2 8.7 0.9 10.9-2.9s0.9-8.7-2.9-10.9c-3.8-2.2-8.7-0.9-10.9 2.9s-0.9 8.7 2.9 10.9zM174.9 67.6c-2.2-3.8-7.1-5.1-10.9-2.9s-5.1 7.1-2.9 10.9c2.2 3.8 7.1 5.1 10.9 2.9s5.1-7.1 2.9-10.9zM256 40c-4.4 0-8 3.6-8 8s3.6 8 8 8 8-3.6 8-8-3.6-8-8-8zM264 210.1v-122.1c0-4.4-3.6-8-8-8s-8 3.6-8 8v122.2c-2.4 1.4-4.4 3.3-5.9 5.8-3 5.2-2.7 11.5 0.2 16.3l-37.6 62.9c-2.3 3.8-1 8.7 2.7 11 3.8 2.3 8.7 1 11-2.7l38-63.4c5.4-0.1 10.6-3 13.4-8 4.5-7.8 1.9-17.5-5.8-22zM348 64.7c-3.8-2.2-8.7-0.9-10.9 2.9s-0.9 8.7 2.9 10.9c3.8 2.2 8.7 0.9 10.9-2.9s0.9-8.7-2.9-10.9zM350.9 372.4c-2.2-3.8-7.1-5.1-10.9-2.9s-5.1 7.1-2.9 10.9c2.2 3.8 7.1 5.1 10.9 2.9s5.1-7.1 2.9-10.9zM415.3 132c-2.2-3.8-7.1-5.1-10.9-2.9s-5.1 7.1-2.9 10.9c2.2 3.8 7.1 5.1 10.9 2.9s5.2-7.1 2.9-10.9zM412.4 305.1c-3.8-2.2-8.7-0.9-10.9 2.9s-0.9 8.7 2.9 10.9c3.8 2.2 8.7 0.9 10.9-2.9 2.3-3.8 0.9-8.7-2.9-10.9zM432 216c-4.4 0-8 3.6-8 8s3.6 8 8 8 8-3.6 8-8c0-4.4-3.6-8-8-8z" />
<glyph unicode="&#xe6b3;" d="M236.6 208.4c4.6-5.7 11.5-9.4 19.4-9.4 13.8 0 25 11.2 25 25 0 7.3-3.2 13.8-8.2 18.4-0.6 0.7-1.3 1.5-2.2 2.2 0 0-117.7 87.5-120.3 85.2s85.3-120.2 85.3-120.2c0.2-0.4 0.7-0.8 1-1.2zM256.2 432v0h-0.2v-112h16v94.7c97.8-8.3 175.3-90.5 175.3-190.5 0-105.5-85.7-191.4-191.2-191.4s-191.3 85.8-191.3 191.3c0 52.8 21.5 100.6 56.1 135.2l-11.9 11.8c-37.7-37.7-61-89.7-61-147.1 0-114.9 93.1-208 208-208s208 93.1 208 208c0 114.9-93 208-207.8 208z" />
<glyph unicode="&#xe6b4;" d="M256 432c-114.9 0-208-93.1-208-208s93.1-208 208-208c114.9 0 208 93.1 208 208s-93.1 208-208 208zM150.5 329.5c2.6 2.3 119.9-84.9 119.9-84.9 1-0.7 1.6-1.5 2.2-2.2 5-4.6 8.2-11 8.2-18.3 0-13.7-11.1-24.9-24.9-24.9-7.8 0-14.7 3.7-19.3 9.4-0.4 0.4-0.8 0.7-1.1 1.1 0.1-0.1-87.5 117.4-85 119.8zM256.1 32.8c-105.7 0-191.4 85.7-191.4 191.4 0 52.8 21.4 100.7 56 135.3l11.8-11.8c-31.6-31.6-51.2-75.3-51.2-123.5 0-96.3 78.4-174.7 174.7-174.7s174.5 78.4 174.5 174.7c0 90.3-70.5 165.1-158.5 174v-78.2h-16v95.6c105.7 0 191.5-85.7 191.5-191.4s-85.8-191.4-191.4-191.4z" />
<glyph unicode="&#xe6b5;" d="M128 160c26.467 0 48-21.533 48-48s-21.533-48-48-48-48 21.533-48 48 21.533 48 48 48zM128 176c-35.346 0-64-28.654-64-64s28.654-64 64-64 64 28.653 64 64c0 35.346-28.654 64-64 64v0zM383.25 192c44.388 0 80.625-36.112 80.625-80.5s-35.987-79.5-80.375-79.5h-255c-44.388 0-80.5 35.112-80.5 79.5s36.112 80.5 80.5 80.5h254.5zM383.5 208h-255c-53.295 0-96.5-43.205-96.5-96.5s43.205-95.5 96.5-95.5h255c53.295 0 96.5 42.205 96.5 95.5s-43.205 96.5-96.5 96.5v0zM384 384c26.467 0 48-21.533 48-48s-21.533-48-48-48-48 21.533-48 48 21.533 48 48 48zM384 400c-35.346 0-64-28.654-64-64s28.654-64 64-64 64 28.653 64 64c0 35.346-28.654 64-64 64v0zM129 416h254.5c44.388 0 80.5-36.112 80.5-80.5s-36.112-79.5-80.5-79.5h-255c-44.388 0-80.375 35.112-80.375 79.5s36.237 80.5 80.625 80.5zM128.5 432c-53.295 0-96.5-43.205-96.5-96.5s43.205-95.5 96.5-95.5h255c53.295 0 96.5 42.205 96.5 95.5s-43.205 96.5-96.5 96.5h-255z" />
<glyph unicode="&#xe6b6;" d="M128 160c-26.467 0-48-21.533-48-48s21.533-48 48-48 48 21.533 48 48-21.533 48-48 48zM383.5 208h-255c-53.295 0-96.5-43.205-96.5-96.5s43.205-95.5 96.5-95.5h255c53.295 0 96.5 42.205 96.5 95.5s-43.205 96.5-96.5 96.5zM128 48c-35.346 0-64 28.653-64 64s28.654 64 64 64 64-28.654 64-64c0-35.347-28.654-64-64-64zM384 288c26.467 0 48 21.533 48 48s-21.533 48-48 48-48-21.533-48-48 21.533-48 48-48zM128.5 240h255c53.295 0 96.5 42.205 96.5 95.5s-43.205 96.5-96.5 96.5h-255c-53.295 0-96.5-43.205-96.5-96.5s43.205-95.5 96.5-95.5zM384 400c35.346 0 64-28.654 64-64s-28.654-64-64-64-64 28.653-64 64c0 35.346 28.654 64 64 64z" />
</font>
</defs>
</svg>
